<svg width="100" height="100" viewBox="0 0 100 100" fill="none" xmlns="http://www.w3.org/2000/svg">
<path fill-rule="evenodd" clip-rule="evenodd" d="M10.2875 29.0375C10.5778 28.7465 10.9226 28.5156 11.3023 28.358C11.6819 28.2005 12.089 28.1194 12.5 28.1194C12.911 28.1194 13.3181 28.2005 13.6977 28.358C14.0774 28.5156 14.4222 28.7465 14.7125 29.0375L50 64.3313L85.2875 29.0375C85.578 28.747 85.923 28.5165 86.3026 28.3592C86.6822 28.202 87.0891 28.1211 87.5 28.1211C87.9109 28.1211 88.3178 28.202 88.6974 28.3592C89.077 28.5165 89.422 28.747 89.7125 29.0375C90.0031 29.328 90.2335 29.673 90.3908 30.0526C90.548 30.4322 90.6289 30.8391 90.6289 31.25C90.6289 31.6609 90.548 32.0678 90.3908 32.4474C90.2335 32.827 90.0031 33.172 89.7125 33.4625L52.2125 70.9625C51.9222 71.2535 51.5774 71.4844 51.1977 71.642C50.8181 71.7995 50.411 71.8806 50 71.8806C49.589 71.8806 49.1819 71.7995 48.8023 71.642C48.4226 71.4844 48.0778 71.2535 47.7875 70.9625L10.2875 33.4625C9.99648 33.1722 9.76559 32.8274 9.60805 32.4477C9.45051 32.0681 9.36942 31.661 9.36942 31.25C9.36942 30.839 9.45051 30.4319 9.60805 30.0523C9.76559 29.6726 9.99648 29.3278 10.2875 29.0375Z" fill="white"/>
</svg>
