<svg width="100" height="100" viewBox="0 0 100 100" fill="none" xmlns="http://www.w3.org/2000/svg">
<path d="M53.125 37.5C53.125 36.6712 52.7958 35.8763 52.2097 35.2903C51.6237 34.7042 50.8288 34.375 50 34.375C49.1712 34.375 48.3763 34.7042 47.7903 35.2903C47.2042 35.8763 46.875 36.6712 46.875 37.5V46.875H37.5C36.6712 46.875 35.8763 47.2042 35.2903 47.7903C34.7042 48.3763 34.375 49.1712 34.375 50C34.375 50.8288 34.7042 51.6237 35.2903 52.2097C35.8763 52.7958 36.6712 53.125 37.5 53.125H46.875V62.5C46.875 63.3288 47.2042 64.1237 47.7903 64.7097C48.3763 65.2958 49.1712 65.625 50 65.625C50.8288 65.625 51.6237 65.2958 52.2097 64.7097C52.7958 64.1237 53.125 63.3288 53.125 62.5V53.125H62.5C63.3288 53.125 64.1237 52.7958 64.7097 52.2097C65.2958 51.6237 65.625 50.8288 65.625 50C65.625 49.1712 65.2958 48.3763 64.7097 47.7903C64.1237 47.2042 63.3288 46.875 62.5 46.875H53.125V37.5Z" fill="white"/>
<path d="M12.5 12.5C12.5 9.18479 13.817 6.00537 16.1612 3.66117C18.5054 1.31696 21.6848 0 25 0L75 0C78.3152 0 81.4946 1.31696 83.8388 3.66117C86.183 6.00537 87.5 9.18479 87.5 12.5V87.5C87.5 90.8152 86.183 93.9946 83.8388 96.3388C81.4946 98.683 78.3152 100 75 100H25C21.6848 100 18.5054 98.683 16.1612 96.3388C13.817 93.9946 12.5 90.8152 12.5 87.5V12.5ZM75 6.25H25C23.3424 6.25 21.7527 6.90848 20.5806 8.08058C19.4085 9.25268 18.75 10.8424 18.75 12.5V87.5C18.75 89.1576 19.4085 90.7473 20.5806 91.9194C21.7527 93.0915 23.3424 93.75 25 93.75H75C76.6576 93.75 78.2473 93.0915 79.4194 91.9194C80.5915 90.7473 81.25 89.1576 81.25 87.5V12.5C81.25 10.8424 80.5915 9.25268 79.4194 8.08058C78.2473 6.90848 76.6576 6.25 75 6.25Z" fill="white"/>
</svg>
