<svg width="100" height="100" viewBox="0 0 100 100" fill="none" xmlns="http://www.w3.org/2000/svg">
<path d="M34.375 50C34.375 49.1712 34.7042 48.3763 35.2903 47.7903C35.8763 47.2042 36.6712 46.875 37.5 46.875H62.5C63.3288 46.875 64.1237 47.2042 64.7097 47.7903C65.2958 48.3763 65.625 49.1712 65.625 50C65.625 50.8288 65.2958 51.6237 64.7097 52.2097C64.1237 52.7958 63.3288 53.125 62.5 53.125H37.5C36.6712 53.125 35.8763 52.7958 35.2903 52.2097C34.7042 51.6237 34.375 50.8288 34.375 50Z" fill="white"/>
<path d="M25 0C21.6848 0 18.5054 1.31696 16.1612 3.66117C13.817 6.00537 12.5 9.18479 12.5 12.5V87.5C12.5 90.8152 13.817 93.9946 16.1612 96.3388C18.5054 98.683 21.6848 100 25 100H75C78.3152 100 81.4946 98.683 83.8388 96.3388C86.183 93.9946 87.5 90.8152 87.5 87.5V12.5C87.5 9.18479 86.183 6.00537 83.8388 3.66117C81.4946 1.31696 78.3152 0 75 0L25 0ZM25 6.25H75C76.6576 6.25 78.2473 6.90848 79.4194 8.08058C80.5915 9.25268 81.25 10.8424 81.25 12.5V87.5C81.25 89.1576 80.5915 90.7473 79.4194 91.9194C78.2473 93.0915 76.6576 93.75 75 93.75H25C23.3424 93.75 21.7527 93.0915 20.5806 91.9194C19.4085 90.7473 18.75 89.1576 18.75 87.5V12.5C18.75 10.8424 19.4085 9.25268 20.5806 8.08058C21.7527 6.90848 23.3424 6.25 25 6.25Z" fill="white"/>
</svg>
