<svg width="1123" height="794" viewBox="0 0 1123 794" fill="none" xmlns="http://www.w3.org/2000/svg">
<mask id="mask0_13_418" style="mask-type:luminance" maskUnits="userSpaceOnUse" x="0" y="0" width="1123" height="794">
<path d="M0 0H1122.52V793.701H0V0Z" fill="white"/>
</mask>
<g mask="url(#mask0_13_418)">
<path d="M566.793 148.812H566.783C560.379 148.816 554.159 153.561 549.266 162.172C543.903 171.609 540.955 184.256 540.965 197.782C540.975 211.306 543.943 223.949 549.321 233.38C554.225 241.977 560.449 246.712 566.849 246.712H566.858C573.262 246.706 579.482 241.962 584.375 233.353C589.738 223.914 592.686 211.266 592.675 197.742V197.741C592.665 184.217 589.698 171.574 584.321 162.145C579.417 153.546 573.193 148.812 566.793 148.812ZM566.847 256.045C556.951 256.046 547.849 249.64 541.213 238.004C535.046 227.189 531.643 212.906 531.631 197.789C531.621 182.67 535.002 168.384 541.153 157.56C547.774 145.906 556.874 139.485 566.775 139.478H566.794C576.69 139.478 585.793 145.885 592.429 157.521C598.595 168.334 601.997 182.617 602.009 197.734C602.021 212.853 598.641 227.14 592.489 237.964C585.869 249.617 576.767 256.037 566.866 256.045H566.847Z" fill="white"/>
</g>
<mask id="mask1_13_418" style="mask-type:luminance" maskUnits="userSpaceOnUse" x="0" y="0" width="1123" height="794">
<path d="M0 3.05176e-05H1122.52V793.701H0V3.05176e-05Z" fill="white"/>
</mask>
<g mask="url(#mask1_13_418)">
<path d="M564.057 149.606L561.152 140.735C563.83 139.859 566.569 139.47 569.33 139.582L569.552 139.593L569.236 144.287L569.148 148.914L568.994 148.909C567.344 148.837 565.692 149.071 564.057 149.606ZM578.426 152.929C576.968 151.697 575.446 150.733 573.902 150.065L577.614 141.501C579.993 142.531 582.293 143.977 584.449 145.798L578.426 152.929ZM554.994 155.834L548.149 149.491C549.981 147.514 551.932 145.797 553.946 144.389L559.293 152.039C557.822 153.067 556.376 154.345 554.994 155.834ZM585.622 162.143C584.62 160.302 583.522 158.606 582.365 157.103L589.756 151.405C591.213 153.295 592.581 155.406 593.818 157.677L585.622 162.143ZM548.202 165.891L539.864 161.699C540.993 159.454 542.228 157.325 543.534 155.37L551.293 160.559C550.2 162.194 549.16 163.989 548.202 165.891ZM590.206 173.673C589.63 171.614 588.962 169.617 588.22 167.735L596.901 164.309C597.761 166.487 598.533 168.791 599.194 171.158L590.206 173.673ZM543.716 177.638L534.73 175.117C535.385 172.781 536.137 170.493 536.965 168.314L545.69 171.627C544.961 173.549 544.296 175.57 543.716 177.638ZM592.537 186.137C592.317 184.005 592.014 181.885 591.633 179.837L600.809 178.131C601.236 180.427 601.576 182.799 601.821 185.181L592.537 186.137ZM541.266 190.147L531.997 189.055C532.274 186.695 532.642 184.338 533.089 182.046L542.25 183.831C541.848 185.894 541.517 188.019 541.266 190.147ZM602.22 199.341L592.886 199.087L592.901 198.818C592.992 196.789 593.01 194.634 592.95 192.517L602.281 192.259C602.346 194.601 602.325 196.982 602.22 199.341ZM540.688 202.941L531.357 203.19C531.296 200.879 531.317 198.522 531.421 196.186L540.749 196.507L540.738 196.721C540.65 198.717 540.632 200.85 540.688 202.941ZM600.537 213.551L591.377 211.758C591.782 209.69 592.114 207.566 592.365 205.445L601.636 206.541C601.356 208.894 600.988 211.253 600.537 213.551ZM532.818 217.318C532.394 215.025 532.056 212.654 531.812 210.27L541.097 209.319C541.314 211.454 541.618 213.574 541.997 215.622L532.818 217.318ZM590.061 240.218L582.312 235.018C583.41 233.379 584.452 231.589 585.408 229.691L593.741 233.891C592.613 236.131 591.374 238.261 590.061 240.218ZM543.837 244.057C542.385 242.166 541.022 240.054 539.786 237.781L547.989 233.325C548.992 235.17 550.085 236.869 551.24 238.371L543.837 244.057ZM579.626 251.182L574.3 243.517C575.772 242.495 577.22 241.222 578.606 239.733L585.437 246.091C583.598 248.067 581.644 249.779 579.626 251.182ZM555.946 253.987C553.572 252.949 551.277 251.497 549.129 249.671L555.169 242.557C556.625 243.793 558.146 244.762 559.689 245.438L555.946 253.987ZM566.229 255.939C565.565 255.969 564.898 255.969 564.229 255.938L564.333 251.271L564.598 246.613C565.04 246.631 565.432 246.631 565.821 246.615C567.056 246.561 568.304 246.331 569.532 245.934L572.408 254.814C570.381 255.47 568.302 255.849 566.229 255.939Z" fill="#259A47"/>
</g>
<mask id="mask2_13_418" style="mask-type:luminance" maskUnits="userSpaceOnUse" x="0" y="0" width="1123" height="794">
<path d="M0 3.05176e-05H1122.52V793.701H0V3.05176e-05Z" fill="white"/>
</mask>
<g mask="url(#mask2_13_418)">
<path d="M568.044 314.792C538.855 314.792 520.353 349.274 514.819 371.655C508.1 398.822 512.584 440.122 541.432 456.947C557.611 466.384 578.477 466.384 594.657 456.947C623.504 440.122 627.988 398.822 621.269 371.655C615.735 349.274 597.233 314.792 568.044 314.792Z" fill="white"/>
</g>
<mask id="mask3_13_418" style="mask-type:luminance" maskUnits="userSpaceOnUse" x="0" y="0" width="1123" height="794">
<path d="M0 6.10352e-05H1122.52V793.701H0V6.10352e-05Z" fill="white"/>
</mask>
<g mask="url(#mask3_13_418)">
<path d="M606.249 400.168C606.249 423.063 589.545 441.622 568.941 441.622C548.336 441.622 531.633 423.063 531.633 400.168C531.633 377.274 548.336 358.715 568.941 358.715C589.545 358.715 606.249 377.274 606.249 400.168Z" fill="#FEE56A"/>
<mask id="mask4_13_418" style="mask-type:luminance" maskUnits="userSpaceOnUse" x="0" y="0" width="1123" height="794">
<path d="M0 3.05176e-05H1122.52V793.701H0V3.05176e-05Z" fill="white"/>
</mask>
<g mask="url(#mask4_13_418)">
<path d="M537.586 295.724C537.586 296.701 537.131 297.664 536.276 298.276C534.868 299.286 532.908 298.964 531.898 297.556L526.998 290.726C525.987 289.318 526.31 287.357 527.718 286.346C529.126 285.337 531.087 285.66 532.096 287.068L536.996 293.897C537.395 294.45 537.586 295.09 537.586 295.724Z" fill="#8E7744"/>
</g>
</g>
<mask id="mask5_13_418" style="mask-type:luminance" maskUnits="userSpaceOnUse" x="0" y="0" width="1123" height="794">
<path d="M0 3.05176e-05H1122.52V793.701H0V3.05176e-05Z" fill="white"/>
</mask>
<g mask="url(#mask5_13_418)">
<path d="M746.76 389.409C746.76 408.153 739.269 425.468 733.534 442.348C727.625 459.745 722.848 477.998 711.864 492.429C700.87 506.872 684.513 516.362 669.47 526.829C654.709 537.102 640.204 549.221 622.529 554.708C605.562 559.976 586.812 558.412 568.044 558.412C549.277 558.412 530.525 559.976 513.56 554.708C495.885 549.221 481.378 537.102 466.617 526.829C451.574 516.362 435.218 506.872 424.225 492.429C413.24 477.998 408.464 459.744 402.553 442.348C396.82 425.468 389.329 408.153 389.329 389.409C389.329 370.665 396.82 353.35 402.553 336.47C408.464 319.073 413.241 300.82 424.225 286.389C435.218 271.946 451.576 262.456 466.617 251.989C481.378 241.716 495.885 229.597 513.558 224.11C530.525 218.842 549.277 220.406 568.044 220.406C586.812 220.406 605.562 218.842 622.529 224.11C640.204 229.597 654.709 241.716 669.472 251.989C684.513 262.456 700.87 271.946 711.864 286.389C722.848 300.82 727.625 319.074 733.534 336.47C739.269 353.35 746.76 370.665 746.76 389.409Z" fill="#A0532A"/>
</g>
<mask id="mask6_13_418" style="mask-type:luminance" maskUnits="userSpaceOnUse" x="0" y="0" width="1123" height="794">
<path d="M0 3.05176e-05H1122.52V793.701H0V3.05176e-05Z" fill="white"/>
</mask>
<g mask="url(#mask6_13_418)">
<path d="M692.537 389.409C692.537 402.586 685.883 414.553 682.023 426.444C678.022 438.766 676.233 452.332 668.767 462.589C661.229 472.949 648.83 478.809 638.469 486.348C628.211 493.813 618.847 503.838 606.525 507.84C594.634 511.701 581.221 509.221 568.043 509.221C554.866 509.221 541.454 511.701 529.563 507.84C517.241 503.838 507.875 493.813 497.618 486.348C487.258 478.809 474.859 472.949 467.319 462.589C459.855 452.332 458.066 438.768 454.065 426.444C450.205 414.554 443.551 402.586 443.551 389.409C443.551 376.232 450.203 364.265 454.065 352.374C458.066 340.052 459.855 326.486 467.319 316.229C474.859 305.869 487.258 300.009 497.618 292.47C507.875 285.005 517.239 274.98 529.563 270.978C541.454 267.117 554.866 269.597 568.043 269.597C581.221 269.597 594.634 267.117 606.523 270.978C618.847 274.98 628.211 285.005 638.469 292.47C648.83 300.009 661.229 305.869 668.767 316.229C676.233 326.486 678.022 340.05 682.023 352.374C685.883 364.264 692.537 376.232 692.537 389.409Z" fill="#C59132"/>
</g>
<mask id="mask7_13_418" style="mask-type:luminance" maskUnits="userSpaceOnUse" x="0" y="0" width="1123" height="794">
<path d="M0 3.05176e-05H1122.52V793.701H0V3.05176e-05Z" fill="white"/>
</mask>
<g mask="url(#mask7_13_418)">
<path d="M568.044 314.792C538.855 314.792 520.353 349.274 514.819 371.655C508.1 398.822 512.584 440.122 541.432 456.947C557.611 466.384 578.477 466.384 594.657 456.947C623.504 440.122 627.988 398.822 621.269 371.655C615.735 349.274 597.233 314.792 568.044 314.792Z" fill="white"/>
</g>
<mask id="mask8_13_418" style="mask-type:luminance" maskUnits="userSpaceOnUse" x="0" y="0" width="1123" height="794">
<path d="M0 6.10352e-05H1122.52V793.701H0V6.10352e-05Z" fill="white"/>
</mask>
<g mask="url(#mask8_13_418)">
<path d="M606.249 400.168C606.249 423.063 589.545 441.622 568.941 441.622C548.336 441.622 531.633 423.063 531.633 400.168C531.633 377.274 548.336 358.715 568.941 358.715C589.545 358.715 606.249 377.274 606.249 400.168Z" fill="#FEE56A"/>
</g>
<mask id="mask9_13_418" style="mask-type:luminance" maskUnits="userSpaceOnUse" x="0" y="0" width="1123" height="794">
<path d="M0 6.10352e-05H1122.52V793.701H0V6.10352e-05Z" fill="white"/>
</mask>
<g mask="url(#mask9_13_418)">
<path d="M549.002 284.101C549.002 281.762 547.106 279.866 544.768 279.866C542.428 279.866 540.532 281.762 540.532 284.101C540.532 286.44 542.428 288.336 544.768 288.336C547.106 288.336 549.002 286.44 549.002 284.101Z" fill="black"/>
</g>
<mask id="mask10_13_418" style="mask-type:luminance" maskUnits="userSpaceOnUse" x="0" y="0" width="1123" height="794">
<path d="M0 6.10352e-05H1122.52V793.701H0V6.10352e-05Z" fill="white"/>
</mask>
<g mask="url(#mask10_13_418)">
<path d="M529.539 315.69C529.539 313.351 527.643 311.455 525.304 311.455C522.964 311.455 521.068 313.351 521.068 315.69C521.068 318.029 522.964 319.925 525.304 319.925C527.643 319.925 529.539 318.029 529.539 315.69Z" fill="black"/>
</g>
<mask id="mask11_13_418" style="mask-type:luminance" maskUnits="userSpaceOnUse" x="0" y="0" width="1123" height="794">
<path d="M0 3.05176e-05H1122.52V793.701H0V3.05176e-05Z" fill="white"/>
</mask>
<g mask="url(#mask11_13_418)">
<path d="M592.58 300.232C593.31 300.88 593.729 301.858 593.621 302.905C593.442 304.629 591.901 305.881 590.176 305.704L581.816 304.838C580.092 304.66 578.838 303.118 579.017 301.393C579.196 299.669 580.737 298.417 582.461 298.596L590.822 299.461C591.501 299.53 592.106 299.812 592.58 300.232Z" fill="#8E7744"/>
</g>
<mask id="mask12_13_418" style="mask-type:luminance" maskUnits="userSpaceOnUse" x="0" y="0" width="1123" height="794">
<path d="M0 3.05176e-05H1122.52V793.701H0V3.05176e-05Z" fill="white"/>
</mask>
<g mask="url(#mask12_13_418)">
<path d="M616.896 286.737C616.896 284.398 615 282.502 612.661 282.502C610.321 282.502 608.425 284.398 608.425 286.737C608.425 289.075 610.321 290.971 612.661 290.971C615 290.971 616.896 289.075 616.896 286.737Z" fill="black"/>
</g>
<mask id="mask13_13_418" style="mask-type:luminance" maskUnits="userSpaceOnUse" x="0" y="0" width="1123" height="794">
<path d="M0 3.05176e-05H1122.52V793.701H0V3.05176e-05Z" fill="white"/>
</mask>
<g mask="url(#mask13_13_418)">
<path d="M577.241 286.737C577.241 284.398 575.345 282.502 573.006 282.502C570.666 282.502 568.77 284.398 568.77 286.737C568.77 289.075 570.666 290.971 573.006 290.971C575.345 290.971 577.241 289.075 577.241 286.737Z" fill="black"/>
</g>
<mask id="mask14_13_418" style="mask-type:luminance" maskUnits="userSpaceOnUse" x="0" y="0" width="1123" height="794">
<path d="M0 3.05176e-05H1122.52V793.701H0V3.05176e-05Z" fill="white"/>
</mask>
<g mask="url(#mask14_13_418)">
<path d="M615.003 310.847C615.003 308.508 613.107 306.612 610.769 306.612C608.429 306.612 606.533 308.508 606.533 310.847C606.533 313.186 608.429 315.082 610.769 315.082C613.107 315.082 615.003 313.186 615.003 310.847Z" fill="black"/>
</g>
<mask id="mask15_13_418" style="mask-type:luminance" maskUnits="userSpaceOnUse" x="0" y="0" width="1123" height="794">
<path d="M0 3.05176e-05H1122.52V793.701H0V3.05176e-05Z" fill="white"/>
</mask>
<g mask="url(#mask15_13_418)">
<path d="M641.902 319.813C641.902 317.475 640.006 315.579 637.667 315.579C635.327 315.579 633.431 317.475 633.431 319.813C633.431 322.152 635.327 324.048 637.667 324.048C640.006 324.048 641.902 322.152 641.902 319.813Z" fill="black"/>
</g>
<mask id="mask16_13_418" style="mask-type:luminance" maskUnits="userSpaceOnUse" x="0" y="0" width="1123" height="794">
<path d="M0 3.05176e-05H1122.52V793.701H0V3.05176e-05Z" fill="white"/>
</mask>
<g mask="url(#mask16_13_418)">
<path d="M632.936 346.712C632.936 344.373 631.04 342.476 628.701 342.476C626.361 342.476 624.465 344.373 624.465 346.712C624.465 349.051 626.361 350.947 628.701 350.947C631.04 350.947 632.936 349.051 632.936 346.712Z" fill="black"/>
</g>
<mask id="mask17_13_418" style="mask-type:luminance" maskUnits="userSpaceOnUse" x="0" y="0" width="1123" height="794">
<path d="M0 3.05176e-05H1122.52V793.701H0V3.05176e-05Z" fill="white"/>
</mask>
<g mask="url(#mask17_13_418)">
<path d="M659.835 337.746C659.835 335.407 657.939 333.511 655.6 333.511C653.26 333.511 651.364 335.407 651.364 337.746C651.364 340.084 653.26 341.98 655.6 341.98C657.939 341.98 659.835 340.084 659.835 337.746Z" fill="black"/>
</g>
<mask id="mask18_13_418" style="mask-type:luminance" maskUnits="userSpaceOnUse" x="0" y="0" width="1123" height="794">
<path d="M0 6.10352e-05H1122.52V793.701H0V6.10352e-05Z" fill="white"/>
</mask>
<g mask="url(#mask18_13_418)">
<path d="M659.835 373.611C659.835 371.272 657.939 369.376 655.6 369.376C653.26 369.376 651.364 371.272 651.364 373.611C651.364 375.949 653.26 377.845 655.6 377.845C657.939 377.845 659.835 375.949 659.835 373.611Z" fill="black"/>
</g>
<mask id="mask19_13_418" style="mask-type:luminance" maskUnits="userSpaceOnUse" x="0" y="0" width="1123" height="794">
<path d="M0 3.05176e-05H1122.52V793.701H0V3.05176e-05Z" fill="white"/>
</mask>
<g mask="url(#mask19_13_418)">
<path d="M641.902 391.543C641.902 389.204 640.006 387.308 637.667 387.308C635.327 387.308 633.431 389.204 633.431 391.543C633.431 393.882 635.327 395.778 637.667 395.778C640.006 395.778 641.902 393.882 641.902 391.543Z" fill="black"/>
</g>
<mask id="mask20_13_418" style="mask-type:luminance" maskUnits="userSpaceOnUse" x="0" y="0" width="1123" height="794">
<path d="M0 3.05176e-05H1122.52V793.701H0V3.05176e-05Z" fill="white"/>
</mask>
<g mask="url(#mask20_13_418)">
<path d="M677.767 400.509C677.767 398.17 675.871 396.274 673.532 396.274C671.192 396.274 669.296 398.17 669.296 400.509C669.296 402.848 671.192 404.744 673.532 404.744C675.871 404.744 677.767 402.848 677.767 400.509Z" fill="black"/>
</g>
<mask id="mask21_13_418" style="mask-type:luminance" maskUnits="userSpaceOnUse" x="0" y="0" width="1123" height="794">
<path d="M0 6.10352e-05H1122.52V793.701H0V6.10352e-05Z" fill="white"/>
</mask>
<g mask="url(#mask21_13_418)">
<path d="M650.868 427.408C650.868 425.069 648.972 423.173 646.634 423.173C644.294 423.173 642.398 425.069 642.398 427.408C642.398 429.746 644.294 431.642 646.634 431.642C648.972 431.642 650.868 429.746 650.868 427.408Z" fill="black"/>
</g>
<mask id="mask22_13_418" style="mask-type:luminance" maskUnits="userSpaceOnUse" x="0" y="0" width="1123" height="794">
<path d="M0 3.05176e-05H1122.52V793.701H0V3.05176e-05Z" fill="white"/>
</mask>
<g mask="url(#mask22_13_418)">
<path d="M502.926 310.847C502.926 308.508 501.03 306.612 498.691 306.612C496.351 306.612 494.455 308.508 494.455 310.847C494.455 313.186 496.351 315.082 498.691 315.082C501.03 315.082 502.926 313.186 502.926 310.847Z" fill="black"/>
</g>
<mask id="mask23_13_418" style="mask-type:luminance" maskUnits="userSpaceOnUse" x="0" y="0" width="1123" height="794">
<path d="M0 3.05176e-05H1122.52V793.701H0V3.05176e-05Z" fill="white"/>
</mask>
<g mask="url(#mask23_13_418)">
<path d="M507.409 346.712C507.409 344.373 505.513 342.476 503.174 342.476C500.834 342.476 498.938 344.373 498.938 346.712C498.938 349.051 500.834 350.947 503.174 350.947C505.513 350.947 507.409 349.051 507.409 346.712Z" fill="black"/>
</g>
<mask id="mask24_13_418" style="mask-type:luminance" maskUnits="userSpaceOnUse" x="0" y="0" width="1123" height="794">
<path d="M0 3.05176e-05H1122.52V793.701H0V3.05176e-05Z" fill="white"/>
</mask>
<g mask="url(#mask24_13_418)">
<path d="M480.51 337.746C480.51 335.407 478.614 333.511 476.276 333.511C473.936 333.511 472.04 335.407 472.04 337.746C472.04 340.084 473.936 341.98 476.276 341.98C478.614 341.98 480.51 340.084 480.51 337.746Z" fill="black"/>
</g>
<mask id="mask25_13_418" style="mask-type:luminance" maskUnits="userSpaceOnUse" x="0" y="0" width="1123" height="794">
<path d="M0 3.05176e-05H1122.52V793.701H0V3.05176e-05Z" fill="white"/>
</mask>
<g mask="url(#mask25_13_418)">
<path d="M498.443 382.577C498.443 380.238 496.547 378.342 494.208 378.342C491.868 378.342 489.972 380.238 489.972 382.577C489.972 384.915 491.868 386.811 494.208 386.811C496.547 386.811 498.443 384.915 498.443 382.577Z" fill="black"/>
</g>
<mask id="mask26_13_418" style="mask-type:luminance" maskUnits="userSpaceOnUse" x="0" y="0" width="1123" height="794">
<path d="M0 3.05176e-05H1122.52V793.701H0V3.05176e-05Z" fill="white"/>
</mask>
<g mask="url(#mask26_13_418)">
<path d="M462.578 391.543C462.578 389.204 460.682 387.308 458.343 387.308C456.003 387.308 454.107 389.204 454.107 391.543C454.107 393.882 456.003 395.778 458.343 395.778C460.682 395.778 462.578 393.882 462.578 391.543Z" fill="black"/>
</g>
<mask id="mask27_13_418" style="mask-type:luminance" maskUnits="userSpaceOnUse" x="0" y="0" width="1123" height="794">
<path d="M0 6.10352e-05H1122.52V793.701H0V6.10352e-05Z" fill="white"/>
</mask>
<g mask="url(#mask27_13_418)">
<path d="M498.443 427.408C498.443 425.069 496.547 423.173 494.208 423.173C491.868 423.173 489.972 425.069 489.972 427.408C489.972 429.746 491.868 431.642 494.208 431.642C496.547 431.642 498.443 429.746 498.443 427.408Z" fill="black"/>
</g>
<mask id="mask28_13_418" style="mask-type:luminance" maskUnits="userSpaceOnUse" x="0" y="0" width="1123" height="794">
<path d="M0 3.05176e-05H1122.52V793.701H0V3.05176e-05Z" fill="white"/>
</mask>
<g mask="url(#mask28_13_418)">
<path d="M625.77 459.307C625.77 456.969 623.874 455.073 621.536 455.073C619.196 455.073 617.3 456.969 617.3 459.307C617.3 461.646 619.196 463.542 621.536 463.542C623.874 463.542 625.77 461.646 625.77 459.307Z" fill="black"/>
</g>
<mask id="mask29_13_418" style="mask-type:luminance" maskUnits="userSpaceOnUse" x="0" y="0" width="1123" height="794">
<path d="M0 3.05176e-05H1122.52V793.701H0V3.05176e-05Z" fill="white"/>
</mask>
<g mask="url(#mask29_13_418)">
<path d="M607.838 495.172C607.838 492.833 605.942 490.937 603.603 490.937C601.263 490.937 599.367 492.833 599.367 495.172C599.367 497.511 601.263 499.407 603.603 499.407C605.942 499.407 607.838 497.511 607.838 495.172Z" fill="black"/>
</g>
<mask id="mask30_13_418" style="mask-type:luminance" maskUnits="userSpaceOnUse" x="0" y="0" width="1123" height="794">
<path d="M0 6.10352e-05H1122.52V793.701H0V6.10352e-05Z" fill="white"/>
</mask>
<g mask="url(#mask30_13_418)">
<path d="M589.906 477.24C589.906 474.901 588.01 473.005 585.671 473.005C583.331 473.005 581.435 474.901 581.435 477.24C581.435 479.578 583.331 481.474 585.671 481.474C588.01 481.474 589.906 479.578 589.906 477.24Z" fill="black"/>
</g>
<mask id="mask31_13_418" style="mask-type:luminance" maskUnits="userSpaceOnUse" x="0" y="0" width="1123" height="794">
<path d="M0 3.05176e-05H1122.52V793.701H0V3.05176e-05Z" fill="white"/>
</mask>
<g mask="url(#mask31_13_418)">
<path d="M563.007 495.172C563.007 492.833 561.111 490.937 558.772 490.937C556.432 490.937 554.536 492.833 554.536 495.172C554.536 497.511 556.432 499.407 558.772 499.407C561.111 499.407 563.007 497.511 563.007 495.172Z" fill="black"/>
</g>
<mask id="mask32_13_418" style="mask-type:luminance" maskUnits="userSpaceOnUse" x="0" y="0" width="1123" height="794">
<path d="M0 3.05176e-05H1122.52V793.701H0V3.05176e-05Z" fill="white"/>
</mask>
<g mask="url(#mask32_13_418)">
<path d="M536.108 468.274C536.108 465.935 534.212 464.039 531.874 464.039C529.534 464.039 527.638 465.935 527.638 468.274C527.638 470.612 529.534 472.508 531.874 472.508C534.212 472.508 536.108 470.612 536.108 468.274Z" fill="black"/>
</g>
<mask id="mask33_13_418" style="mask-type:luminance" maskUnits="userSpaceOnUse" x="0" y="0" width="1123" height="794">
<path d="M0 3.05176e-05H1122.52V793.701H0V3.05176e-05Z" fill="white"/>
</mask>
<g mask="url(#mask33_13_418)">
<path d="M500.243 459.307C500.243 456.969 498.347 455.073 496.009 455.073C493.669 455.073 491.773 456.969 491.773 459.307C491.773 461.646 493.669 463.542 496.009 463.542C498.347 463.542 500.243 461.646 500.243 459.307Z" fill="black"/>
</g>
<mask id="mask34_13_418" style="mask-type:luminance" maskUnits="userSpaceOnUse" x="0" y="0" width="1123" height="794">
<path d="M0 3.05176e-05H1122.52V793.701H0V3.05176e-05Z" fill="white"/>
</mask>
<g mask="url(#mask34_13_418)">
<path d="M659.842 455.721C659.842 453.382 657.946 451.486 655.607 451.486C653.267 451.486 651.371 453.382 651.371 455.721C651.371 458.059 653.267 459.955 655.607 459.955C657.946 459.955 659.842 458.059 659.842 455.721Z" fill="black"/>
</g>
<mask id="mask35_13_418" style="mask-type:luminance" maskUnits="userSpaceOnUse" x="0" y="0" width="1123" height="794">
<path d="M0 6.10352e-05H1122.52V793.701H0V6.10352e-05Z" fill="white"/>
</mask>
<g mask="url(#mask35_13_418)">
<path d="M473.345 428.822C473.345 426.483 471.449 424.587 469.11 424.587C466.77 424.587 464.874 426.483 464.874 428.822C464.874 431.161 466.77 433.057 469.11 433.057C471.449 433.057 473.345 431.161 473.345 428.822Z" fill="black"/>
</g>
<mask id="mask36_13_418" style="mask-type:luminance" maskUnits="userSpaceOnUse" x="0" y="0" width="1123" height="794">
<path d="M0 6.10352e-05H1122.52V793.701H0V6.10352e-05Z" fill="white"/>
</mask>
<g mask="url(#mask36_13_418)">
<path d="M671.215 353.136C671.945 353.784 672.364 354.763 672.256 355.809C672.077 357.533 670.536 358.785 668.811 358.608L660.451 357.743C658.727 357.564 657.473 356.023 657.652 354.297C657.831 352.573 659.372 351.321 661.096 351.5L669.457 352.365C670.136 352.435 670.741 352.716 671.215 353.136Z" fill="#8E7744"/>
</g>
<mask id="mask37_13_418" style="mask-type:luminance" maskUnits="userSpaceOnUse" x="0" y="0" width="1123" height="794">
<path d="M0 3.05176e-05H1122.52V793.701H0V3.05176e-05Z" fill="white"/>
</mask>
<g mask="url(#mask37_13_418)">
<path d="M617.029 475.322C617.76 475.97 618.178 476.949 618.07 477.995C617.892 479.719 616.35 480.971 614.625 480.794L606.265 479.929C604.541 479.75 603.288 478.209 603.466 476.483C603.645 474.759 605.186 473.507 606.91 473.686L615.272 474.551C615.95 474.621 616.556 474.902 617.029 475.322Z" fill="#8E7744"/>
</g>
<mask id="mask38_13_418" style="mask-type:luminance" maskUnits="userSpaceOnUse" x="0" y="0" width="1123" height="794">
<path d="M0 3.05176e-05H1122.52V793.701H0V3.05176e-05Z" fill="white"/>
</mask>
<g mask="url(#mask38_13_418)">
<path d="M500.468 405.456C501.199 406.104 501.618 407.082 501.51 408.129C501.331 409.853 499.79 411.105 498.064 410.928L489.704 410.062C487.98 409.884 486.727 408.342 486.906 406.617C487.084 404.893 488.626 403.641 490.35 403.82L498.711 404.685C499.39 404.754 499.995 405.036 500.468 405.456Z" fill="#8E7744"/>
</g>
<mask id="mask39_13_418" style="mask-type:luminance" maskUnits="userSpaceOnUse" x="0" y="0" width="1123" height="794">
<path d="M0 6.10352e-05H1122.52V793.701H0V6.10352e-05Z" fill="white"/>
</mask>
<g mask="url(#mask39_13_418)">
<path d="M533.899 486.53C534.629 487.178 535.048 488.156 534.94 489.203C534.761 490.927 533.22 492.179 531.495 492.002L523.135 491.136C521.411 490.958 520.157 489.416 520.336 487.691C520.515 485.967 522.056 484.715 523.78 484.894L532.141 485.759C532.82 485.828 533.425 486.11 533.899 486.53Z" fill="#8E7744"/>
</g>
<mask id="mask40_13_418" style="mask-type:luminance" maskUnits="userSpaceOnUse" x="0" y="0" width="1123" height="794">
<path d="M0 3.05176e-05H1122.52V793.701H0V3.05176e-05Z" fill="white"/>
</mask>
<g mask="url(#mask40_13_418)">
<path d="M621.372 320.281C622.275 319.908 623.338 319.959 624.231 320.515C625.704 321.428 626.156 323.363 625.242 324.836L620.808 331.976C619.894 333.449 617.959 333.901 616.487 332.987C615.014 332.072 614.562 330.137 615.476 328.665L619.91 321.524C620.27 320.945 620.787 320.524 621.372 320.281Z" fill="#8E7744"/>
</g>
<mask id="mask41_13_418" style="mask-type:luminance" maskUnits="userSpaceOnUse" x="0" y="0" width="1123" height="794">
<path d="M0 3.05176e-05H1122.52V793.701H0V3.05176e-05Z" fill="white"/>
</mask>
<g mask="url(#mask41_13_418)">
<path d="M582.201 490.694C583.103 490.321 584.166 490.371 585.059 490.927C586.533 491.841 586.985 493.775 586.07 495.249L581.637 502.389C580.722 503.862 578.787 504.314 577.315 503.399C575.842 502.485 575.39 500.55 576.305 499.078L580.738 491.937C581.098 491.358 581.615 490.937 582.201 490.694Z" fill="#8E7744"/>
</g>
<mask id="mask42_13_418" style="mask-type:luminance" maskUnits="userSpaceOnUse" x="0" y="0" width="1123" height="794">
<path d="M0 6.10352e-05H1122.52V793.701H0V6.10352e-05Z" fill="white"/>
</mask>
<g mask="url(#mask42_13_418)">
<path d="M468.658 359.915C469.561 359.541 470.623 359.592 471.517 360.148C472.99 361.061 473.442 362.996 472.527 364.469L468.094 371.609C467.179 373.083 465.245 373.535 463.773 372.62C462.299 371.705 461.847 369.771 462.762 368.299L467.195 361.157C467.555 360.579 468.073 360.157 468.658 359.915Z" fill="#8E7744"/>
</g>
<mask id="mask43_13_418" style="mask-type:luminance" maskUnits="userSpaceOnUse" x="0" y="0" width="1123" height="794">
<path d="M0 6.10352e-05H1122.52V793.701H0V6.10352e-05Z" fill="white"/>
</mask>
<g mask="url(#mask43_13_418)">
<path d="M549.148 302.149C548.17 302.149 547.208 301.695 546.596 300.84C545.585 299.432 545.908 297.472 547.316 296.461L554.145 291.561C555.553 290.551 557.514 290.873 558.525 292.281C559.534 293.689 559.212 295.651 557.804 296.66L550.974 301.56C550.421 301.959 549.781 302.149 549.148 302.149Z" fill="#F8F3BC"/>
</g>
<mask id="mask44_13_418" style="mask-type:luminance" maskUnits="userSpaceOnUse" x="0" y="0" width="1123" height="794">
<path d="M0 6.10352e-05H1122.52V793.701H0V6.10352e-05Z" fill="white"/>
</mask>
<g mask="url(#mask44_13_418)">
<path d="M513.283 302.149C512.305 302.149 511.343 301.695 510.731 300.84C509.72 299.432 510.043 297.472 511.451 296.461L518.28 291.561C519.688 290.551 521.649 290.873 522.66 292.281C523.669 293.689 523.347 295.651 521.939 296.66L515.109 301.56C514.556 301.959 513.916 302.149 513.283 302.149Z" fill="#F8F3BC"/>
</g>
<mask id="mask45_13_418" style="mask-type:luminance" maskUnits="userSpaceOnUse" x="0" y="0" width="1123" height="794">
<path d="M0 3.05176e-05H1122.52V793.701H0V3.05176e-05Z" fill="white"/>
</mask>
<g mask="url(#mask45_13_418)">
<path d="M503.42 330.841C502.443 330.841 501.48 330.387 500.868 329.532C499.857 328.124 500.18 326.164 501.588 325.153L508.417 320.253C509.825 319.243 511.787 319.565 512.797 320.973C513.807 322.381 513.484 324.343 512.076 325.352L505.247 330.252C504.693 330.651 504.053 330.841 503.42 330.841Z" fill="#F8F3BC"/>
</g>
<mask id="mask46_13_418" style="mask-type:luminance" maskUnits="userSpaceOnUse" x="0" y="0" width="1123" height="794">
<path d="M0 3.05176e-05H1122.52V793.701H0V3.05176e-05Z" fill="white"/>
</mask>
<g mask="url(#mask46_13_418)">
<path d="M634.327 369.396C633.349 369.396 632.387 368.941 631.775 368.087C630.764 366.679 631.087 364.719 632.495 363.708L639.324 358.808C640.732 357.797 642.693 358.12 643.704 359.528C644.713 360.936 644.392 362.897 642.983 363.907L636.153 368.807C635.6 369.205 634.96 369.396 634.327 369.396Z" fill="#F8F3BC"/>
</g>
<mask id="mask47_13_418" style="mask-type:luminance" maskUnits="userSpaceOnUse" x="0" y="0" width="1123" height="794">
<path d="M0 6.10352e-05H1122.52V793.701H0V6.10352e-05Z" fill="white"/>
</mask>
<g mask="url(#mask47_13_418)">
<path d="M652.259 405.261C651.282 405.261 650.319 404.806 649.707 403.951C648.697 402.543 649.019 400.583 650.427 399.573L657.257 394.673C658.665 393.662 660.626 393.985 661.637 395.393C662.646 396.801 662.323 398.762 660.915 399.771L654.086 404.671C653.533 405.07 652.893 405.261 652.259 405.261Z" fill="#F8F3BC"/>
</g>
<mask id="mask48_13_418" style="mask-type:luminance" maskUnits="userSpaceOnUse" x="0" y="0" width="1123" height="794">
<path d="M0 6.10352e-05H1122.52V793.701H0V6.10352e-05Z" fill="white"/>
</mask>
<g mask="url(#mask48_13_418)">
<path d="M631.053 444.627C630.347 445.3 629.335 445.635 628.303 445.439C626.599 445.116 625.481 443.475 625.804 441.772L627.369 433.514C627.691 431.81 629.333 430.691 631.036 431.015C632.74 431.338 633.857 432.979 633.535 434.682L631.969 442.94C631.843 443.611 631.512 444.19 631.053 444.627Z" fill="#F8F3BC"/>
</g>
<mask id="mask49_13_418" style="mask-type:luminance" maskUnits="userSpaceOnUse" x="0" y="0" width="1123" height="794">
<path d="M0 3.05176e-05H1122.52V793.701H0V3.05176e-05Z" fill="white"/>
</mask>
<g mask="url(#mask49_13_418)">
<path d="M479.764 453.739C478.917 454.226 477.856 454.312 476.899 453.878C475.32 453.162 474.623 451.3 475.339 449.723L478.813 442.068C479.529 440.491 481.391 439.792 482.968 440.51C484.547 441.226 485.245 443.086 484.528 444.664L481.053 452.318C480.772 452.938 480.313 453.423 479.764 453.739Z" fill="#F8F3BC"/>
</g>
<mask id="mask50_13_418" style="mask-type:luminance" maskUnits="userSpaceOnUse" x="0" y="0" width="1123" height="794">
<path d="M0 3.05176e-05H1122.52V793.701H0V3.05176e-05Z" fill="white"/>
</mask>
<g mask="url(#mask50_13_418)">
<path d="M492.538 356.233C492.632 357.205 492.272 358.207 491.48 358.899C490.176 360.039 488.193 359.906 487.052 358.602L481.52 352.273C480.378 350.969 480.512 348.986 481.817 347.845C483.122 346.705 485.104 346.838 486.245 348.142L491.777 354.471C492.226 354.985 492.477 355.602 492.538 356.233Z" fill="#F8F3BC"/>
</g>
<mask id="mask51_13_418" style="mask-type:luminance" maskUnits="userSpaceOnUse" x="0" y="0" width="1123" height="794">
<path d="M0 6.10352e-05H1122.52V793.701H0V6.10352e-05Z" fill="white"/>
</mask>
<g mask="url(#mask51_13_418)">
<path d="M483.367 392.27C483.46 393.242 483.1 394.244 482.308 394.936C481.003 396.076 479.022 395.943 477.88 394.639L472.348 388.31C471.207 387.006 471.34 385.023 472.646 383.882C473.951 382.742 475.932 382.875 477.074 384.179L482.606 390.508C483.055 391.022 483.306 391.639 483.367 392.27Z" fill="#F8F3BC"/>
</g>
<mask id="mask52_13_418" style="mask-type:luminance" maskUnits="userSpaceOnUse" x="0" y="0" width="1123" height="794">
<path d="M0 6.10352e-05H1122.52V793.701H0V6.10352e-05Z" fill="white"/>
</mask>
<g mask="url(#mask52_13_418)">
<path d="M599.145 289.17C599.145 290.148 598.69 291.11 597.836 291.722C596.428 292.733 594.468 292.41 593.457 291.002L588.557 284.173C587.546 282.765 587.869 280.804 589.277 279.793C590.685 278.784 592.646 279.105 593.656 280.514L598.556 287.344C598.954 287.897 599.145 288.537 599.145 289.17Z" fill="#F8F3BC"/>
</g>
<mask id="mask53_13_418" style="mask-type:luminance" maskUnits="userSpaceOnUse" x="0" y="0" width="1123" height="794">
<path d="M0 3.05176e-05H1122.52V793.701H0V3.05176e-05Z" fill="white"/>
</mask>
<g mask="url(#mask53_13_418)">
<path d="M515.79 460.003C516.753 459.836 517.779 460.119 518.529 460.856C519.766 462.069 519.783 464.056 518.569 465.293L512.679 471.291C511.465 472.528 509.478 472.545 508.242 471.331C507.005 470.116 506.987 468.129 508.202 466.893L514.091 460.896C514.569 460.409 515.166 460.111 515.79 460.003Z" fill="#F8F3BC"/>
</g>
<mask id="mask54_13_418" style="mask-type:luminance" maskUnits="userSpaceOnUse" x="0" y="0" width="1123" height="794">
<path d="M0 6.10352e-05H1122.52V793.701H0V6.10352e-05Z" fill="white"/>
</mask>
<g mask="url(#mask54_13_418)">
<path d="M564.662 478.704C564.755 479.676 564.395 480.678 563.603 481.37C562.299 482.51 560.316 482.377 559.175 481.073L553.643 474.744C552.502 473.44 552.635 471.457 553.94 470.316C555.246 469.176 557.227 469.309 558.368 470.613L563.9 476.942C564.35 477.456 564.6 478.073 564.662 478.704Z" fill="#F8F3BC"/>
</g>
<mask id="mask55_13_418" style="mask-type:luminance" maskUnits="userSpaceOnUse" x="0" y="0" width="1123" height="794">
<path d="M0 3.05176e-05H1122.52V793.701H0V3.05176e-05Z" fill="white"/>
</mask>
<g mask="url(#mask55_13_418)">
<path d="M632.598 471.349C631.677 471.026 630.918 470.278 630.622 469.269C630.134 467.606 631.087 465.862 632.751 465.374L640.817 463.01C642.481 462.522 644.223 463.474 644.711 465.138C645.199 466.801 644.246 468.545 642.582 469.033L634.517 471.397C633.862 471.589 633.195 471.558 632.598 471.349Z" fill="#F8F3BC"/>
</g>
<mask id="mask56_13_418" style="mask-type:luminance" maskUnits="userSpaceOnUse" x="0" y="0" width="1123" height="794">
<path d="M0 3.05176e-05H1122.52V793.701H0V3.05176e-05Z" fill="white"/>
</mask>
<g mask="url(#mask56_13_418)">
<path d="M623.632 306.295C622.71 305.972 621.952 305.224 621.656 304.215C621.168 302.552 622.121 300.808 623.785 300.32L631.85 297.956C633.514 297.468 635.257 298.42 635.745 300.084C636.233 301.747 635.28 303.491 633.616 303.979L625.55 306.343C624.896 306.535 624.229 306.504 623.632 306.295Z" fill="#F8F3BC"/>
</g>
<mask id="mask57_13_418" style="mask-type:luminance" maskUnits="userSpaceOnUse" x="0" y="0" width="1123" height="794">
<path d="M0 3.05176e-05H1122.52V793.701H0V3.05176e-05Z" fill="white"/>
</mask>
<g mask="url(#mask57_13_418)">
<path d="M514.62 445.993C514.942 446.916 514.827 447.974 514.222 448.834C513.223 450.25 511.266 450.589 509.848 449.59L502.978 444.748C501.562 443.75 501.222 441.793 502.222 440.376C503.219 438.958 505.178 438.62 506.594 439.618L513.464 444.461C514.022 444.854 514.412 445.394 514.62 445.993Z" fill="#8E7744"/>
</g>
<mask id="mask58_13_418" style="mask-type:luminance" maskUnits="userSpaceOnUse" x="0" y="0" width="1123" height="794">
<path d="M0 3.05176e-05H1122.52V793.701H0V3.05176e-05Z" fill="white"/>
</mask>
<g mask="url(#mask58_13_418)">
<path d="M670.93 432.679C670.561 433.583 669.776 434.303 668.753 434.547C667.068 434.951 665.374 433.911 664.972 432.226L663.016 424.05C662.613 422.364 663.652 420.671 665.338 420.268C667.024 419.864 668.717 420.904 669.12 422.591L671.076 430.766C671.234 431.428 671.17 432.092 670.93 432.679Z" fill="#8E7744"/>
</g>
<mask id="mask59_13_418" style="mask-type:luminance" maskUnits="userSpaceOnUse" x="0" y="0" width="1123" height="794">
<path d="M0 6.10352e-05H1122.52V793.701H0V6.10352e-05Z" fill="white"/>
</mask>
<g mask="url(#mask59_13_418)">
<path d="M439.777 329.47C440.097 329.649 440.466 329.858 440.886 330.101C441.305 330.341 441.805 330.63 442.381 330.967C442.958 331.303 443.677 331.719 444.535 332.213L441.803 337.339L418.942 325.477L421.773 320.509C421.965 320.61 422.351 320.798 422.934 321.075C423.517 321.354 424.213 321.697 425.019 322.105C425.826 322.51 426.709 322.957 427.669 323.442C428.63 323.929 429.582 324.43 430.527 324.942C429.953 324.087 429.355 323.183 428.734 322.231C428.114 321.279 427.523 320.373 426.963 319.513C426.403 318.653 425.903 317.879 425.461 317.187C425.019 316.498 424.698 315.994 424.502 315.673C424.691 315.261 424.855 314.898 424.994 314.582C425.134 314.267 425.266 313.966 425.391 313.679C425.515 313.391 425.647 313.091 425.787 312.775C425.926 312.459 426.099 312.103 426.307 311.702L426.799 310.757C426.977 310.411 427.199 310.03 427.466 309.61C428.227 310.806 428.939 311.897 429.603 312.883C430.266 313.87 430.898 314.803 431.495 315.683C432.094 316.562 432.673 317.41 433.233 318.221C433.794 319.034 434.361 319.867 434.935 320.722C436.119 320.683 437.286 320.663 438.437 320.666C439.586 320.67 440.773 320.685 441.994 320.713C443.217 320.741 444.493 320.79 445.823 320.863C447.155 320.937 448.601 321.038 450.158 321.166L447.182 327.041C446.279 326.961 445.573 326.895 445.063 326.85C444.554 326.803 444.117 326.773 443.751 326.751C443.386 326.731 443.043 326.723 442.726 326.727C442.409 326.733 441.999 326.727 441.501 326.711L437.371 326.677L438.782 328.937C439.126 329.114 439.457 329.291 439.777 329.47Z" fill="white"/>
</g>
<mask id="mask60_13_418" style="mask-type:luminance" maskUnits="userSpaceOnUse" x="0" y="0" width="1123" height="794">
<path d="M0 6.10352e-05H1122.52V793.701H0V6.10352e-05Z" fill="white"/>
</mask>
<g mask="url(#mask60_13_418)">
<path d="M451.704 293.387C452.453 292.485 453.229 291.639 454.026 290.848C454.454 291.176 454.832 291.461 455.16 291.704C455.488 291.951 455.801 292.204 456.1 292.467C456.398 292.731 456.697 293.02 456.993 293.337C457.29 293.652 457.62 294.032 457.981 294.472L453.814 299.529C454.372 299.937 454.906 300.347 455.418 300.756C455.929 301.169 456.462 301.579 457.02 301.985C457.441 301.412 457.892 300.82 458.37 300.211C458.849 299.601 459.325 299.012 459.8 298.441C460.274 297.871 460.737 297.332 461.188 296.824C461.637 296.316 462.044 295.879 462.406 295.509C462.813 295.931 463.178 296.299 463.506 296.612C463.833 296.925 464.146 297.221 464.446 297.5C464.746 297.777 465.057 298.071 465.376 298.376C465.693 298.684 466.048 299.04 466.436 299.449C465.732 300.429 465.045 301.357 464.377 302.225C463.708 303.097 463.028 303.968 462.336 304.832C461.644 305.697 460.934 306.584 460.206 307.491C459.481 308.4 458.708 309.38 457.888 310.431C456.705 309.532 455.548 308.627 454.418 307.715C453.286 306.801 452.152 305.871 451.009 304.92C448.893 303.16 446.81 301.4 444.761 299.639C442.713 297.88 440.636 296.111 438.532 294.332C439.322 293.283 440.06 292.313 440.741 291.425C441.424 290.536 442.088 289.663 442.733 288.801C443.381 287.94 444.061 287.057 444.772 286.151C445.482 285.244 446.269 284.241 447.13 283.137C447.528 283.468 447.89 283.756 448.218 284.001C448.546 284.245 448.876 284.499 449.204 284.757C449.533 285.019 449.892 285.295 450.278 285.588C450.664 285.88 451.134 286.231 451.692 286.639L446.618 293.04L449.662 295.74C450.273 295.072 450.954 294.288 451.704 293.387Z" fill="white"/>
</g>
<mask id="mask61_13_418" style="mask-type:luminance" maskUnits="userSpaceOnUse" x="0" y="0" width="1123" height="794">
<path d="M0 6.10352e-05H1122.52V793.701H0V6.10352e-05Z" fill="white"/>
</mask>
<g mask="url(#mask61_13_418)">
<path d="M474.916 274.418C475.113 274.18 475.241 273.96 475.299 273.754C475.359 273.514 475.333 273.288 475.223 273.076C474.628 271.82 473.993 270.81 473.315 270.042C472.637 269.275 472.04 268.75 471.523 268.471C471.263 268.344 471 268.324 470.737 268.406C470.473 268.488 470.237 268.604 470.027 268.755C469.816 268.903 469.639 269.06 469.496 269.226C469.352 269.394 469.272 269.484 469.255 269.496C469.237 269.508 469.401 269.73 469.747 270.156C470.092 270.582 470.511 271.096 471.003 271.695C471.495 272.292 472.007 272.908 472.541 273.543C473.075 274.179 473.515 274.702 473.863 275.112C474.367 274.886 474.717 274.654 474.916 274.418ZM484.656 281.199C483.749 280.783 482.928 280.392 482.192 280.026C481.456 279.658 480.763 279.288 480.111 278.926C479.459 278.558 478.777 278.163 478.064 277.734L476.687 278.803C477.62 280.04 478.461 281.158 479.211 282.158C479.54 282.582 479.86 283 480.167 283.416C480.475 283.831 480.761 284.207 481.025 284.548L481.956 285.746L481.089 286.419C480.868 286.591 480.671 286.75 480.499 286.896C480.328 287.044 480.165 287.176 480.013 287.296L479.555 287.652C479.316 287.836 479.037 288.048 478.716 288.282C478.395 288.518 477.956 288.839 477.399 289.243C475.441 286.759 473.552 284.379 471.729 282.103C469.907 279.827 468.085 277.515 466.264 275.17C464.733 273.198 463.181 271.148 461.609 269.016C462.008 268.655 462.428 268.3 462.869 267.958L464.604 266.611C465.096 266.227 465.675 265.799 466.34 265.324C467.007 264.847 467.693 264.415 468.401 264.028C469.109 263.645 469.807 263.339 470.495 263.119C471.18 262.9 471.793 262.838 472.335 262.938C473.721 263.25 474.877 263.774 475.805 264.511C476.731 265.25 477.591 266.128 478.384 267.148C478.924 267.843 479.449 268.566 479.963 269.314C480.475 270.06 480.873 270.882 481.16 271.775L481.037 273.668L489.996 277.418L487.868 282.624C486.633 282.087 485.563 281.611 484.656 281.199Z" fill="white"/>
</g>
<mask id="mask62_13_418" style="mask-type:luminance" maskUnits="userSpaceOnUse" x="0" y="0" width="1123" height="794">
<path d="M0 6.10352e-05H1122.52V793.701H0V6.10352e-05Z" fill="white"/>
</mask>
<g mask="url(#mask62_13_418)">
<path d="M509.48 257.545C510.135 258.185 510.643 258.883 511.007 259.64C511.408 260.475 511.627 261.403 511.664 262.423C511.701 263.444 511.512 264.615 511.097 265.936C510.78 266.568 510.415 267.112 510.004 267.573C509.592 268.033 509.095 268.463 508.511 268.864C507.927 269.264 507.232 269.668 506.427 270.079C505.621 270.491 504.667 270.963 503.561 271.493L502.076 272.207L499.828 267.379C500.128 267.209 500.423 267.051 500.708 266.903C500.995 266.752 501.337 266.571 501.735 266.355C502.095 266.159 502.465 265.961 502.848 265.767C503.231 265.569 503.584 265.348 503.905 265.095C504.227 264.847 504.492 264.564 504.699 264.249C504.905 263.935 505.012 263.563 505.019 263.128C504.949 262.732 504.847 262.4 504.717 262.127C504.503 261.681 504.22 261.304 503.868 260.996C503.516 260.685 503.127 260.421 502.697 260.196C502.267 259.973 501.816 259.78 501.341 259.613C500.868 259.447 500.411 259.279 499.971 259.108C499.023 258.728 498.213 258.335 497.541 257.929C496.869 257.524 496.317 256.949 495.887 256.201C495.764 255.997 495.647 255.789 495.536 255.581C495.423 255.372 495.311 255.152 495.199 254.92C494.975 254.455 494.783 253.956 494.623 253.423C494.463 252.892 494.369 252.34 494.345 251.765C494.321 251.192 494.388 250.587 494.547 249.951C494.707 249.313 495.008 248.661 495.451 247.993C495.687 247.641 495.979 247.28 496.328 246.908C496.675 246.539 497.103 246.153 497.616 245.753C498.127 245.351 498.737 244.921 499.447 244.46C500.157 244 500.993 243.503 501.953 242.968L505.16 247.48C504.647 247.799 504.228 248.084 503.905 248.333C503.584 248.584 503.307 248.789 503.073 248.949C502.8 249.128 502.535 249.368 502.276 249.675C502.016 249.977 501.865 250.259 501.823 250.517C501.78 250.777 501.78 251.075 501.823 251.412C501.865 251.751 501.967 252.084 502.124 252.415C502.236 252.647 502.383 252.864 502.563 253.063C502.741 253.264 502.955 253.423 503.205 253.543C503.901 253.852 504.58 254.193 505.239 254.571C505.896 254.945 506.536 255.332 507.156 255.725C508.051 256.297 508.827 256.904 509.48 257.545Z" fill="white"/>
</g>
<mask id="mask63_13_418" style="mask-type:luminance" maskUnits="userSpaceOnUse" x="0" y="0" width="1123" height="794">
<path d="M0 6.10352e-05H1122.52V793.701H0V6.10352e-05Z" fill="white"/>
</mask>
<g mask="url(#mask63_13_418)">
<path d="M531.631 258.47C531.491 257.861 531.346 257.231 531.195 256.582C531.046 255.931 530.886 255.25 530.719 254.538C530.554 253.826 530.37 253.063 530.167 252.249C529.918 251.158 529.687 250.166 529.478 249.275C529.268 248.387 529.064 247.527 528.87 246.699C528.675 245.873 528.466 245.033 528.243 244.179C528.019 243.325 527.756 242.382 527.455 241.347C527.106 241.458 526.755 241.561 526.402 241.661C526.048 241.758 525.664 241.859 525.247 241.963L522.271 242.703C522.21 242.365 522.144 242.058 522.076 241.787L521.867 240.942C521.736 240.421 521.612 239.946 521.495 239.521C521.379 239.095 521.27 238.674 521.164 238.257L521.008 237.63C520.956 237.421 520.914 237.199 520.876 236.963C522.119 236.61 523.286 236.287 524.378 235.994C525.468 235.699 526.535 235.423 527.58 235.165C528.331 234.977 529.074 234.795 529.808 234.626C530.542 234.455 531.294 234.273 532.067 234.079C532.839 233.887 533.639 233.695 534.466 233.501C535.294 233.305 536.167 233.094 537.086 232.865C537.186 233.173 537.271 233.457 537.347 233.717C537.423 233.974 537.494 234.238 537.562 234.51C537.696 235.053 537.827 235.625 537.955 236.225C538.082 236.826 538.27 237.626 538.519 238.627C538.039 238.749 537.607 238.861 537.223 238.967C536.839 239.073 536.46 239.174 536.084 239.269L533.642 239.875C534.047 241.415 534.4 242.834 534.702 244.135C535.002 245.435 535.316 246.743 535.644 248.057C535.971 249.374 536.362 250.923 536.816 252.705C537.271 254.489 537.76 256.522 538.284 258.809L532.036 260.297C531.907 259.686 531.771 259.077 531.631 258.47Z" fill="white"/>
</g>
<mask id="mask64_13_418" style="mask-type:luminance" maskUnits="userSpaceOnUse" x="0" y="0" width="1123" height="794">
<path d="M0 6.10352e-05H1122.52V793.701H0V6.10352e-05Z" fill="white"/>
</mask>
<g mask="url(#mask64_13_418)">
<path d="M565.825 239.97C566.997 239.935 568.144 239.953 569.265 240.026C569.304 240.562 569.34 241.035 569.375 241.442C569.409 241.85 569.427 242.253 569.429 242.651C569.431 243.05 569.409 243.465 569.369 243.897C569.329 244.33 569.264 244.826 569.175 245.387L562.627 245.625C562.691 246.311 562.74 246.983 562.771 247.639C562.8 248.294 562.849 248.966 562.913 249.653C563.623 249.587 564.363 249.531 565.136 249.487C565.909 249.441 566.668 249.406 567.409 249.385C568.152 249.361 568.861 249.347 569.541 249.349C570.219 249.35 570.816 249.362 571.335 249.39C571.288 249.973 571.255 250.491 571.237 250.943C571.219 251.395 571.205 251.829 571.196 252.235C571.187 252.645 571.175 253.071 571.156 253.514C571.137 253.954 571.104 254.457 571.057 255.017C569.855 255.141 568.707 255.242 567.612 255.321C566.517 255.397 565.413 255.463 564.307 255.518C563.2 255.574 562.067 255.631 560.905 255.689C559.745 255.747 558.499 255.819 557.167 255.905C557.056 254.421 556.968 252.954 556.901 251.503C556.833 250.053 556.777 248.585 556.731 247.102C556.645 244.347 556.581 241.619 556.541 238.921C556.499 236.219 556.447 233.493 556.383 230.738C557.692 230.634 558.907 230.543 560.023 230.463C561.14 230.387 562.235 230.303 563.308 230.217C564.383 230.129 565.493 230.051 566.643 229.983C567.793 229.915 569.067 229.837 570.464 229.75C570.479 230.269 570.505 230.729 570.539 231.138C570.573 231.546 570.603 231.959 570.627 232.379C570.649 232.795 570.68 233.247 570.716 233.73C570.752 234.214 570.804 234.798 570.868 235.486L562.712 235.935L562.709 240.003C563.615 240.018 564.652 240.007 565.825 239.97Z" fill="white"/>
</g>
<mask id="mask65_13_418" style="mask-type:luminance" maskUnits="userSpaceOnUse" x="0" y="0" width="1123" height="794">
<path d="M0 3.05176e-05H1122.52V793.701H0V3.05176e-05Z" fill="white"/>
</mask>
<g mask="url(#mask65_13_418)">
<path d="M589.229 236.514C589.352 235.793 589.48 235.041 589.613 234.256C589.747 233.469 589.925 232.485 590.153 231.301C590.412 231.318 590.648 231.338 590.863 231.362C591.077 231.382 591.291 231.413 591.503 231.444C591.992 231.52 592.464 231.61 592.916 231.713C593.368 231.817 593.933 231.92 594.615 232.026L595.253 232.125C595.485 232.161 595.744 232.19 596.023 232.212C595.562 235.734 595.088 239.145 594.596 242.444C594.105 245.744 593.596 249.096 593.068 252.496L592.264 257.665L586.08 256.9C586.401 254.685 586.713 252.598 587.019 250.644L588.852 238.84C588.98 238.01 589.105 237.236 589.229 236.514Z" fill="white"/>
</g>
<mask id="mask66_13_418" style="mask-type:luminance" maskUnits="userSpaceOnUse" x="0" y="0" width="1123" height="794">
<path d="M0 6.10352e-05H1122.52V793.701H0V6.10352e-05Z" fill="white"/>
</mask>
<g mask="url(#mask66_13_418)">
<path d="M621.238 249.46C622.344 249.849 623.408 250.28 624.428 250.752C624.269 251.266 624.133 251.721 624.017 252.113C623.901 252.506 623.773 252.889 623.632 253.262C623.489 253.634 623.321 254.013 623.128 254.401C622.934 254.79 622.694 255.23 622.408 255.722L616.213 253.58C616.026 254.244 615.828 254.886 615.621 255.509C615.414 256.133 615.216 256.776 615.028 257.438C615.712 257.636 616.425 257.852 617.161 258.088C617.9 258.322 618.618 258.565 619.32 258.812C620.02 259.058 620.686 259.304 621.32 259.548C621.952 259.793 622.504 260.022 622.977 260.234C622.724 260.761 622.506 261.232 622.325 261.648C622.146 262.064 621.978 262.461 621.821 262.84C621.666 263.217 621.5 263.61 621.322 264.016C621.146 264.421 620.933 264.877 620.688 265.382C619.522 265.064 618.414 264.744 617.365 264.421C616.316 264.098 615.265 263.761 614.212 263.414C613.158 263.066 612.081 262.71 610.977 262.346C609.874 261.982 608.685 261.598 607.412 261.197C607.844 259.773 608.289 258.373 608.752 256.996C609.213 255.618 609.69 254.228 610.182 252.826C611.097 250.229 612.021 247.662 612.957 245.13C613.893 242.596 614.828 240.034 615.762 237.44C617.022 237.817 618.186 238.168 619.257 238.498C620.326 238.828 621.378 239.148 622.412 239.454C623.445 239.76 624.509 240.088 625.605 240.44C626.704 240.792 627.918 241.178 629.253 241.601C629.081 242.089 628.937 242.53 628.822 242.922C628.708 243.316 628.585 243.71 628.457 244.109C628.326 244.509 628.193 244.941 628.052 245.406C627.912 245.87 627.748 246.434 627.56 247.098L619.792 244.572L618.321 248.366C619.158 248.708 620.132 249.072 621.238 249.46Z" fill="white"/>
</g>
<mask id="mask67_13_418" style="mask-type:luminance" maskUnits="userSpaceOnUse" x="0" y="0" width="1123" height="794">
<path d="M0 0H1122.52V793.701H0V0Z" fill="white"/>
</mask>
<g mask="url(#mask67_13_418)">
<path d="M647.036 264.568C647.326 264.672 647.578 264.712 647.792 264.694C648.036 264.668 648.238 264.564 648.399 264.386C649.367 263.39 650.092 262.441 650.575 261.538C651.056 260.634 651.339 259.892 651.419 259.31C651.446 259.022 651.374 258.769 651.204 258.55C651.036 258.333 650.844 258.153 650.631 258.008C650.416 257.862 650.207 257.752 650.002 257.674C649.795 257.597 649.683 257.556 649.666 257.542C649.647 257.533 649.499 257.762 649.219 258.236C648.94 258.709 648.607 259.278 648.218 259.952C647.83 260.621 647.431 261.317 647.023 262.038C646.616 262.761 646.28 263.356 646.015 263.824C646.406 264.217 646.744 264.465 647.036 264.568ZM644.091 276.064C644.162 275.069 644.24 274.164 644.328 273.345C644.416 272.528 644.516 271.75 644.632 271.012C644.746 270.273 644.879 269.493 645.028 268.678L643.547 267.762C642.715 269.068 641.96 270.248 641.287 271.298C641.006 271.757 640.724 272.202 640.443 272.634C640.163 273.069 639.91 273.47 639.683 273.834L638.887 275.125L637.954 274.548C637.715 274.402 637.498 274.274 637.299 274.164C637.102 274.053 636.92 273.949 636.755 273.846L636.26 273.541C636.006 273.384 635.71 273.196 635.376 272.978C635.044 272.758 634.59 272.46 634.015 272.081C635.659 269.378 637.228 266.774 638.723 264.272C640.218 261.768 641.746 259.254 643.304 256.726C644.616 254.602 645.994 252.433 647.439 250.214C647.919 250.461 648.398 250.73 648.874 251.025L650.74 252.178C651.272 252.506 651.876 252.897 652.556 253.356C653.232 253.812 653.878 254.305 654.487 254.832C655.098 255.36 655.624 255.908 656.071 256.476C656.518 257.04 656.79 257.596 656.887 258.134C657.079 259.541 656.991 260.809 656.626 261.936C656.259 263.064 655.735 264.174 655.058 265.272C654.595 266.025 654.103 266.769 653.582 267.51C653.063 268.25 652.432 268.912 651.694 269.492L649.878 270.04L649.5 279.744L643.879 279.572C643.951 278.226 644.022 277.057 644.091 276.064Z" fill="white"/>
</g>
<mask id="mask68_13_418" style="mask-type:luminance" maskUnits="userSpaceOnUse" x="0" y="0" width="1123" height="794">
<path d="M0 3.05176e-05H1122.52V793.701H0V3.05176e-05Z" fill="white"/>
</mask>
<g mask="url(#mask68_13_418)">
<path d="M674.981 283.828C675.25 284.027 675.613 284.111 676.067 284.072C676.266 284.055 676.429 284.019 676.558 283.964C676.686 283.908 676.814 283.821 676.942 283.707C677.069 283.589 677.217 283.448 677.381 283.279L678.639 281.981C678.865 281.749 679.041 281.508 679.166 281.255C679.29 281.001 679.363 280.749 679.383 280.499C679.402 280.247 679.31 279.992 679.11 279.739C678.923 279.496 678.773 279.336 678.658 279.252C678.542 279.172 678.375 279.024 678.161 278.816L674.273 283.005C674.475 283.351 674.711 283.625 674.981 283.828ZM667.299 291.643C667.577 291.836 667.943 291.915 668.398 291.877C668.626 291.857 668.805 291.831 668.934 291.791C669.063 291.749 669.186 291.676 669.307 291.567C669.427 291.459 669.563 291.327 669.713 291.172L670.927 289.923C671.121 289.723 671.279 289.515 671.397 289.3C671.515 289.084 671.573 288.863 671.569 288.635C671.566 288.407 671.479 288.165 671.307 287.908C671.169 287.713 671.061 287.572 670.982 287.479C670.905 287.391 670.837 287.313 670.774 287.255L670.402 286.896L666.602 290.808C666.791 291.171 667.022 291.449 667.299 291.643ZM668.127 297.553C667.233 297.285 666.462 296.836 665.815 296.207C665.274 295.681 664.774 295.209 664.31 294.789C663.846 294.371 663.331 293.883 662.759 293.328C662.327 292.911 661.853 292.432 661.335 291.9C660.817 291.367 660.21 290.719 659.514 289.952C661.838 287.529 664.026 285.229 666.078 283.056C668.131 280.879 670.095 278.827 671.969 276.897L673.499 275.323C674.009 274.8 674.517 274.288 675.029 273.796L677.367 271.477C677.923 271.987 678.429 272.439 678.883 272.836C679.338 273.232 679.811 273.672 680.306 274.151L680.954 274.781C681.171 274.991 681.395 275.239 681.626 275.523C682.061 276.035 682.471 276.508 682.857 276.944C683.243 277.379 683.578 277.824 683.858 278.277C684.139 278.729 684.354 279.208 684.509 279.717C684.659 280.223 684.71 280.812 684.658 281.483C684.646 281.711 684.566 282.009 684.419 282.375C684.274 282.744 684.074 283.149 683.822 283.595C683.569 284.04 683.261 284.504 682.895 284.988C682.53 285.473 682.127 285.941 681.693 286.387C681.019 287.081 680.271 287.683 679.45 288.189C678.627 288.696 677.761 288.971 676.847 289.015C676.897 290.2 676.657 291.289 676.13 292.277C675.606 293.267 674.99 294.124 674.286 294.851C673.85 295.299 673.419 295.689 672.99 296.021C672.561 296.355 672.166 296.645 671.803 296.895C671.383 297.175 670.983 297.415 670.605 297.62C669.847 297.845 669.022 297.821 668.127 297.553Z" fill="white"/>
</g>
<mask id="mask69_13_418" style="mask-type:luminance" maskUnits="userSpaceOnUse" x="0" y="0" width="1123" height="794">
<path d="M0 6.10352e-05H1122.52V793.701H0V6.10352e-05Z" fill="white"/>
</mask>
<g mask="url(#mask69_13_418)">
<path d="M690.242 311.733C690.351 311.92 690.494 312.148 690.671 312.418L691.238 313.281C691.439 313.588 691.625 313.85 691.797 314.072L692.931 313.094C693.255 312.806 693.593 312.506 693.943 312.2C694.295 311.89 694.625 311.597 694.931 311.318C695.297 310.977 695.705 310.586 696.151 310.15C696.601 309.714 697.01 309.313 697.382 308.938L698.679 307.622C698.219 307.821 697.69 308.054 697.091 308.318C696.491 308.584 695.877 308.86 695.241 309.148C694.606 309.434 693.985 309.72 693.374 310.006C692.763 310.292 692.214 310.542 691.725 310.76C691.238 310.978 690.841 311.148 690.537 311.27L690.097 311.482C690.085 311.466 690.133 311.549 690.242 311.733ZM704.905 303.844C705.061 304.102 705.275 304.438 705.547 304.853L705.99 305.528C706.155 305.778 706.346 306.05 706.566 306.345C705.349 307.941 704.062 309.5 702.707 311.021C701.35 312.541 699.934 314.089 698.457 315.662C696.982 317.238 695.433 318.866 693.809 320.548C692.186 322.232 690.499 324.034 688.75 325.956L685.181 320.577C685.535 320.216 685.819 319.932 686.033 319.728C686.246 319.524 686.441 319.332 686.618 319.15C686.795 318.97 686.983 318.776 687.182 318.569C687.381 318.362 687.633 318.08 687.939 317.724C687.763 317.453 687.554 317.148 687.317 316.802C687.077 316.457 686.838 316.105 686.603 315.746C686.367 315.385 686.131 315.038 685.898 314.702C685.665 314.366 685.465 314.072 685.301 313.82L681.586 315.102L679.885 312.512C679.638 312.134 679.374 311.722 679.094 311.276C678.814 310.829 678.466 310.29 678.053 309.66L701.491 301.261L702.81 300.742C703.047 301.025 703.289 301.354 703.538 301.733L704.477 303.162C704.605 303.361 704.749 303.588 704.905 303.844Z" fill="white"/>
</g>
<mask id="mask70_13_418" style="mask-type:luminance" maskUnits="userSpaceOnUse" x="0" y="0" width="1123" height="794">
<path d="M0 6.10352e-05H1122.52V793.701H0V6.10352e-05Z" fill="white"/>
</mask>
<g mask="url(#mask70_13_418)">
<path d="M720.728 334.979L702.664 342.582C702.826 343.004 702.977 343.424 703.117 343.842C703.256 344.263 703.405 344.695 703.566 345.139C703.726 345.586 703.901 346.067 704.089 346.58C704.276 347.098 704.5 347.663 704.76 348.276C704.134 348.563 703.589 348.798 703.128 348.976L700.66 349.931C700.298 350.07 699.885 350.254 699.42 350.48L695.404 340.268L694.872 338.535L714.422 330.564L718.593 328.919L720.728 334.979Z" fill="white"/>
</g>
<mask id="mask71_13_418" style="mask-type:luminance" maskUnits="userSpaceOnUse" x="0" y="0" width="1123" height="794">
<path d="M0 3.05176e-05H1122.52V793.701H0V3.05176e-05Z" fill="white"/>
</mask>
<g mask="url(#mask71_13_418)">
<path d="M700.987 439.597C700.655 439.445 700.271 439.264 699.834 439.054C699.398 438.846 698.878 438.596 698.276 438.304C697.675 438.013 696.927 437.653 696.034 437.226L698.37 431.905L722.067 441.994L719.622 447.162C719.422 447.076 719.022 446.918 718.42 446.685C717.818 446.453 717.099 446.164 716.263 445.82C715.427 445.476 714.514 445.098 713.519 444.686C712.524 444.276 711.536 443.848 710.555 443.406C711.192 444.217 711.858 445.073 712.55 445.976C713.239 446.878 713.899 447.736 714.52 448.552C715.146 449.366 715.703 450.101 716.198 450.754C716.69 451.409 717.047 451.889 717.268 452.193C717.111 452.618 716.974 452.993 716.86 453.317C716.744 453.642 716.635 453.953 716.534 454.248C716.432 454.544 716.323 454.854 716.208 455.181C716.092 455.505 715.947 455.876 715.77 456.29L715.352 457.27C715.2 457.626 715.008 458.025 714.775 458.464C713.924 457.33 713.13 456.296 712.395 455.364C711.658 454.429 710.958 453.546 710.294 452.716C709.63 451.884 708.99 451.082 708.368 450.316C707.747 449.549 707.12 448.761 706.482 447.953C705.302 448.081 704.14 448.19 702.995 448.274C701.848 448.358 700.664 448.434 699.443 448.5C698.223 448.564 696.947 448.612 695.612 448.64C694.279 448.669 692.831 448.68 691.27 448.669L693.79 442.585C694.695 442.596 695.404 442.606 695.915 442.612C696.427 442.621 696.866 442.62 697.232 442.612C697.596 442.604 697.939 442.585 698.255 442.557C698.571 442.526 698.979 442.502 699.479 442.481L703.598 442.2L702.02 440.056C701.664 439.902 701.32 439.75 700.987 439.597Z" fill="white"/>
</g>
<mask id="mask72_13_418" style="mask-type:luminance" maskUnits="userSpaceOnUse" x="0" y="0" width="1123" height="794">
<path d="M0 3.05176e-05H1122.52V793.701H0V3.05176e-05Z" fill="white"/>
</mask>
<g mask="url(#mask72_13_418)">
<path d="M691.841 476.485C691.161 477.44 690.455 478.345 689.719 479.193C689.268 478.9 688.869 478.644 688.524 478.424C688.177 478.205 687.845 477.974 687.528 477.736C687.209 477.497 686.891 477.232 686.571 476.938C686.251 476.645 685.893 476.292 685.5 475.88L689.268 470.52C688.683 470.157 688.119 469.79 687.579 469.418C687.036 469.046 686.473 468.68 685.885 468.316C685.509 468.918 685.107 469.542 684.675 470.188C684.244 470.832 683.813 471.457 683.384 472.061C682.953 472.665 682.535 473.238 682.123 473.78C681.713 474.318 681.341 474.789 681.008 475.182C680.572 474.794 680.177 474.456 679.828 474.168C679.479 473.878 679.144 473.609 678.823 473.354C678.503 473.1 678.171 472.832 677.829 472.55C677.489 472.269 677.109 471.938 676.691 471.562C677.317 470.529 677.932 469.554 678.533 468.634C679.133 467.716 679.745 466.797 680.369 465.881C680.993 464.965 681.633 464.028 682.289 463.068C682.944 462.108 683.641 461.07 684.379 459.96C685.625 460.766 686.848 461.582 688.045 462.406C689.241 463.23 690.445 464.069 691.656 464.932C693.901 466.525 696.112 468.122 698.289 469.722C700.465 471.32 702.669 472.926 704.903 474.54C704.196 475.646 703.535 476.669 702.923 477.606C702.309 478.544 701.712 479.465 701.135 480.374C700.555 481.282 699.944 482.214 699.305 483.173C698.664 484.13 697.957 485.19 697.183 486.356C696.76 486.057 696.377 485.797 696.032 485.578C695.685 485.36 695.339 485.132 694.989 484.898C694.643 484.664 694.265 484.416 693.857 484.153C693.451 483.889 692.953 483.577 692.368 483.213L696.939 476.445L693.699 473.982C693.14 474.696 692.52 475.529 691.841 476.485Z" fill="white"/>
</g>
<mask id="mask73_13_418" style="mask-type:luminance" maskUnits="userSpaceOnUse" x="0" y="0" width="1123" height="794">
<path d="M0 3.05176e-05H1122.52V793.701H0V3.05176e-05Z" fill="white"/>
</mask>
<g mask="url(#mask73_13_418)">
<path d="M670.139 497.165C669.959 497.415 669.849 497.645 669.809 497.858C669.767 498.098 669.809 498.322 669.937 498.526C670.622 499.734 671.334 500.693 672.069 501.409C672.802 502.121 673.439 502.598 673.975 502.837C674.245 502.942 674.506 502.943 674.763 502.842C675.019 502.741 675.247 502.606 675.445 502.441C675.643 502.277 675.809 502.105 675.939 501.929C676.07 501.751 676.142 501.657 676.159 501.641C676.174 501.629 675.995 501.421 675.617 501.022C675.242 500.622 674.785 500.142 674.249 499.582C673.713 499.023 673.154 498.449 672.573 497.857C671.994 497.263 671.514 496.775 671.138 496.393C670.651 496.657 670.321 496.915 670.139 497.165ZM659.913 491.146C660.847 491.49 661.695 491.815 662.458 492.127C663.219 492.439 663.938 492.751 664.615 493.067C665.294 493.382 666.005 493.726 666.749 494.097L668.039 492.926C667.015 491.765 666.091 490.714 665.269 489.774C664.907 489.377 664.557 488.982 664.219 488.591C663.881 488.203 663.565 487.85 663.277 487.53L662.258 486.406L663.07 485.669C663.278 485.481 663.461 485.305 663.622 485.146C663.781 484.987 663.934 484.843 664.077 484.711L664.507 484.322C664.73 484.119 664.993 483.89 665.295 483.63C665.598 483.37 666.01 483.018 666.537 482.571C668.677 484.901 670.742 487.13 672.731 489.259C674.723 491.391 676.714 493.557 678.709 495.757C680.386 497.606 682.089 499.533 683.819 501.537C683.447 501.929 683.057 502.314 682.642 502.69L681.017 504.165C680.555 504.585 680.009 505.055 679.383 505.581C678.754 506.106 678.102 506.587 677.426 507.027C676.749 507.466 676.077 507.822 675.409 508.094C674.741 508.366 674.133 508.473 673.587 508.415C672.181 508.21 670.987 507.775 670.007 507.11C669.027 506.446 668.103 505.637 667.235 504.678C666.643 504.026 666.063 503.346 665.497 502.638C664.929 501.933 664.469 501.145 664.114 500.275L664.094 498.377L654.875 495.322L656.599 489.967C657.873 490.411 658.977 490.803 659.913 491.146Z" fill="white"/>
</g>
<mask id="mask74_13_418" style="mask-type:luminance" maskUnits="userSpaceOnUse" x="0" y="0" width="1123" height="794">
<path d="M0 6.10352e-05H1122.52V793.701H0V6.10352e-05Z" fill="white"/>
</mask>
<g mask="url(#mask74_13_418)">
<path d="M636.96 516.62C636.258 516.032 635.698 515.374 635.277 514.647C634.816 513.846 634.526 512.936 634.41 511.923C634.297 510.907 634.396 509.724 634.709 508.375C634.978 507.722 635.3 507.151 635.674 506.66C636.049 506.171 636.513 505.703 637.065 505.259C637.617 504.815 638.278 504.36 639.049 503.888C639.821 503.418 640.738 502.874 641.8 502.26L643.226 501.438L645.836 506.08C645.548 506.27 645.268 506.452 644.993 506.623C644.72 506.794 644.393 507.002 644.012 507.246C643.668 507.471 643.314 507.694 642.946 507.918C642.58 508.143 642.245 508.392 641.942 508.666C641.642 508.939 641.401 509.242 641.216 509.571C641.036 509.9 640.957 510.28 640.984 510.714C641.084 511.103 641.21 511.426 641.361 511.688C641.608 512.116 641.92 512.472 642.293 512.752C642.666 513.034 643.076 513.268 643.521 513.459C643.966 513.648 644.432 513.808 644.917 513.938C645.402 514.067 645.872 514.202 646.322 514.336C647.296 514.644 648.133 514.975 648.833 515.326C649.536 515.68 650.13 516.212 650.617 516.926C650.754 517.12 650.885 517.316 651.013 517.516C651.141 517.716 651.269 517.927 651.398 518.15C651.657 518.596 651.886 519.082 652.089 519.599C652.288 520.116 652.422 520.659 652.489 521.231C652.558 521.8 652.538 522.41 652.428 523.056C652.318 523.703 652.066 524.376 651.676 525.076C651.466 525.446 651.204 525.827 650.884 526.223C650.566 526.619 650.166 527.036 649.688 527.474C649.209 527.914 648.632 528.388 647.96 528.903C647.286 529.416 646.492 529.976 645.573 530.582L642.033 526.326C642.522 525.97 642.917 525.654 643.218 525.38C643.521 525.106 643.781 524.882 644.001 524.703C644.261 524.504 644.508 524.243 644.742 523.92C644.98 523.596 645.106 523.306 645.13 523.043C645.154 522.782 645.13 522.484 645.061 522.15C644.993 521.816 644.868 521.492 644.685 521.176C644.554 520.951 644.393 520.748 644.2 520.562C644.004 520.375 643.778 520.234 643.521 520.134C642.802 519.878 642.098 519.588 641.416 519.262C640.729 518.938 640.064 518.603 639.417 518.258C638.48 517.755 637.66 517.208 636.96 516.62Z" fill="white"/>
</g>
<mask id="mask75_13_418" style="mask-type:luminance" maskUnits="userSpaceOnUse" x="0" y="0" width="1123" height="794">
<path d="M0 3.05176e-05H1122.52V793.701H0V3.05176e-05Z" fill="white"/>
</mask>
<g mask="url(#mask75_13_418)">
<path d="M614.802 517.383C614.989 517.978 615.179 518.595 615.381 519.231C615.579 519.869 615.789 520.535 616.01 521.234C616.229 521.931 616.471 522.678 616.734 523.474C617.066 524.545 617.373 525.515 617.649 526.385C617.926 527.255 618.194 528.097 618.45 528.909C618.709 529.718 618.981 530.539 619.269 531.374C619.557 532.209 619.889 533.13 620.269 534.137C620.609 534.001 620.951 533.87 621.295 533.745C621.639 533.622 622.015 533.49 622.425 533.355L625.334 532.391C625.422 532.725 625.51 533.022 625.599 533.29L625.873 534.117C626.042 534.627 626.201 535.089 626.35 535.505C626.498 535.921 626.641 536.331 626.775 536.741L626.979 537.355C627.047 537.558 627.107 537.777 627.162 538.009C625.95 538.454 624.811 538.865 623.746 539.242C622.679 539.618 621.637 539.974 620.614 540.311C619.881 540.557 619.154 540.793 618.435 541.018C617.717 541.245 616.979 541.483 616.223 541.735C615.467 541.983 614.685 542.239 613.875 542.495C613.065 542.753 612.211 543.029 611.311 543.327C611.189 543.027 611.081 542.751 610.986 542.501C610.891 542.247 610.801 541.99 610.713 541.725C610.537 541.193 610.362 540.633 610.19 540.043C610.018 539.455 609.769 538.671 609.442 537.69C609.913 537.534 610.335 537.389 610.711 537.254C611.085 537.119 611.455 536.989 611.823 536.867L614.214 536.077C613.691 534.571 613.231 533.183 612.831 531.91C612.433 530.635 612.019 529.355 611.594 528.07C611.166 526.783 610.659 525.267 610.07 523.523C609.482 521.782 608.838 519.791 608.142 517.551L614.259 515.591C614.435 516.19 614.615 516.789 614.802 517.383Z" fill="white"/>
</g>
<mask id="mask76_13_418" style="mask-type:luminance" maskUnits="userSpaceOnUse" x="0" y="0" width="1123" height="794">
<path d="M0 3.05176e-05H1122.52V793.701H0V3.05176e-05Z" fill="white"/>
</mask>
<g mask="url(#mask76_13_418)">
<path d="M582.115 538.433C580.948 538.558 579.804 538.626 578.68 538.638C578.6 538.106 578.529 537.637 578.464 537.234C578.399 536.831 578.351 536.429 578.317 536.031C578.285 535.634 578.273 535.221 578.281 534.786C578.289 534.351 578.315 533.851 578.363 533.285L584.873 532.55C584.756 531.87 584.659 531.203 584.577 530.553C584.496 529.902 584.397 529.237 584.281 528.557C583.58 528.675 582.845 528.787 582.077 528.89C581.309 528.995 580.556 529.087 579.817 529.166C579.08 529.245 578.372 529.313 577.696 529.362C577.02 529.414 576.423 529.447 575.905 529.458C575.907 528.874 575.9 528.355 575.883 527.903C575.867 527.45 575.848 527.018 575.825 526.611C575.803 526.202 575.784 525.775 575.768 525.335C575.753 524.893 575.748 524.389 575.753 523.827C576.941 523.611 578.079 523.423 579.165 523.262C580.252 523.102 581.345 522.953 582.444 522.811C583.544 522.673 584.671 522.529 585.823 522.383C586.976 522.238 588.213 522.071 589.535 521.886C589.757 523.355 589.959 524.81 590.136 526.253C590.312 527.694 590.48 529.154 590.64 530.629C590.935 533.369 591.205 536.082 591.453 538.773C591.699 541.461 591.96 544.178 592.233 546.917C590.935 547.123 589.732 547.306 588.624 547.469C587.516 547.631 586.429 547.797 585.365 547.966C584.303 548.134 583.2 548.297 582.059 548.453C580.917 548.609 579.653 548.782 578.268 548.974C578.212 548.461 578.151 548.003 578.087 547.598C578.023 547.194 577.961 546.785 577.905 546.367C577.851 545.953 577.787 545.505 577.712 545.026C577.64 544.546 577.544 543.966 577.427 543.287L585.527 542.219L585.219 538.161C584.315 538.217 583.281 538.305 582.115 538.433Z" fill="white"/>
</g>
<mask id="mask77_13_418" style="mask-type:luminance" maskUnits="userSpaceOnUse" x="0" y="0" width="1123" height="794">
<path d="M0 4.57764e-05H1122.52V793.701H0V4.57764e-05Z" fill="white"/>
</mask>
<g mask="url(#mask77_13_418)">
<path d="M559.042 543.661C558.974 544.39 558.903 545.15 558.831 545.943C558.759 546.737 558.654 547.731 558.516 548.93C558.258 548.931 558.02 548.929 557.804 548.922C557.59 548.917 557.375 548.905 557.16 548.889C556.667 548.851 556.191 548.797 555.732 548.729C555.274 548.659 554.7 548.599 554.014 548.546L553.37 548.494C553.134 548.477 552.876 548.467 552.595 548.467C552.787 544.919 553.002 541.483 553.238 538.155C553.476 534.83 553.731 531.449 553.998 528.018L554.406 522.801L560.631 523.094C560.479 525.327 560.326 527.43 560.172 529.405L559.242 541.313C559.178 542.15 559.11 542.931 559.042 543.661Z" fill="white"/>
</g>
<mask id="mask78_13_418" style="mask-type:luminance" maskUnits="userSpaceOnUse" x="0" y="0" width="1123" height="794">
<path d="M0 3.05176e-05H1122.52V793.701H0V3.05176e-05Z" fill="white"/>
</mask>
<g mask="url(#mask78_13_418)">
<path d="M526.141 533.188C525.007 532.883 523.915 532.535 522.862 532.141C522.981 531.615 523.082 531.152 523.167 530.752C523.253 530.351 523.351 529.96 523.466 529.579C523.578 529.197 523.718 528.805 523.881 528.403C524.045 528.001 524.25 527.545 524.499 527.033L530.835 528.696C530.974 528.02 531.121 527.364 531.281 526.727C531.441 526.089 531.589 525.433 531.725 524.759C531.029 524.616 530.302 524.453 529.55 524.275C528.794 524.095 528.059 523.908 527.342 523.716C526.625 523.524 525.942 523.329 525.291 523.133C524.643 522.937 524.074 522.752 523.587 522.576C523.799 522.032 523.979 521.545 524.127 521.117C524.277 520.688 524.414 520.28 524.541 519.891C524.667 519.501 524.803 519.097 524.947 518.68C525.094 518.263 525.271 517.792 525.477 517.268C526.665 517.496 527.791 517.732 528.865 517.976C529.935 518.216 531.009 518.472 532.086 518.737C533.162 519.003 534.263 519.277 535.391 519.557C536.519 519.837 537.734 520.129 539.034 520.433C538.711 521.883 538.373 523.315 538.018 524.723C537.663 526.132 537.293 527.552 536.909 528.988C536.195 531.648 535.467 534.276 534.727 536.875C533.987 539.472 533.249 542.099 532.515 544.755C531.23 544.476 530.042 544.213 528.95 543.967C527.858 543.717 526.785 543.481 525.731 543.253C524.678 543.028 523.593 542.78 522.471 542.513C521.351 542.247 520.11 541.952 518.747 541.632C518.882 541.133 518.991 540.683 519.075 540.283C519.162 539.883 519.253 539.479 519.351 539.071C519.449 538.661 519.551 538.221 519.655 537.748C519.759 537.275 519.881 536.7 520.017 536.024L527.955 537.951L529.133 534.055C528.271 533.779 527.274 533.489 526.141 533.188Z" fill="white"/>
</g>
<mask id="mask79_13_418" style="mask-type:luminance" maskUnits="userSpaceOnUse" x="0" y="0" width="1123" height="794">
<path d="M0 3.05176e-05H1122.52V793.701H0V3.05176e-05Z" fill="white"/>
</mask>
<g mask="url(#mask79_13_418)">
<path d="M499.268 520.087C498.971 520.005 498.716 519.984 498.504 520.019C498.263 520.064 498.07 520.183 497.922 520.372C497.032 521.439 496.382 522.44 495.97 523.379C495.558 524.316 495.334 525.079 495.296 525.665C495.294 525.952 495.384 526.199 495.57 526.404C495.754 526.609 495.959 526.775 496.183 526.901C496.407 527.031 496.626 527.125 496.836 527.185C497.047 527.247 497.162 527.281 497.182 527.291C497.2 527.301 497.331 527.059 497.574 526.567C497.815 526.075 498.106 525.48 498.44 524.781C498.778 524.084 499.122 523.36 499.474 522.611C499.824 521.859 500.115 521.239 500.343 520.751C499.923 520.389 499.566 520.169 499.268 520.087ZM501.328 508.401C501.336 509.397 501.326 510.307 501.299 511.128C501.275 511.951 501.234 512.735 501.175 513.48C501.118 514.224 501.044 515.011 500.956 515.836L502.504 516.636C503.235 515.272 503.896 514.039 504.488 512.94C504.735 512.461 504.982 511.996 505.228 511.543C505.474 511.088 505.696 510.669 505.894 510.288L506.591 508.94L507.566 509.444C507.814 509.571 508.04 509.683 508.246 509.779C508.452 509.873 508.64 509.964 508.814 510.053L509.328 510.32C509.596 510.457 509.906 510.623 510.254 510.816C510.602 511.007 511.076 511.272 511.679 511.605C510.246 514.425 508.88 517.14 507.579 519.749C506.28 522.36 504.948 524.983 503.586 527.621C502.44 529.837 501.232 532.108 499.959 534.429C499.462 534.223 498.963 533.989 498.467 533.729L496.518 532.724C495.963 532.437 495.33 532.092 494.618 531.688C493.907 531.284 493.227 530.841 492.579 530.363C491.931 529.883 491.362 529.377 490.874 528.845C490.386 528.315 490.074 527.783 489.935 527.253C489.636 525.863 489.628 524.593 489.907 523.441C490.187 522.289 490.624 521.141 491.216 519.995C491.62 519.211 492.055 518.431 492.518 517.652C492.979 516.875 493.556 516.168 494.247 515.531L496.018 514.848L495.656 505.143L501.275 504.887C501.304 506.233 501.323 507.405 501.328 508.401Z" fill="white"/>
</g>
<mask id="mask80_13_418" style="mask-type:luminance" maskUnits="userSpaceOnUse" x="0" y="0" width="1123" height="794">
<path d="M0 3.05176e-05H1122.52V793.701H0V3.05176e-05Z" fill="white"/>
</mask>
<g mask="url(#mask80_13_418)">
<path d="M477.001 494.633C476.711 494.46 476.34 494.411 475.888 494.481C475.661 494.519 475.487 494.56 475.361 494.609C475.236 494.66 475.117 494.744 475.007 494.86C474.893 494.977 474.769 495.119 474.633 495.284L473.516 496.623C473.337 496.837 473.196 497.056 473.093 497.28C472.992 497.503 472.952 497.728 472.973 497.956C472.993 498.184 473.099 498.419 473.289 498.661C473.443 498.844 473.563 498.979 473.647 499.063C473.731 499.148 473.805 499.217 473.871 499.272L474.268 499.603L477.76 495.412C477.544 495.064 477.293 494.804 477.001 494.633ZM469.937 503.009C469.653 502.829 469.287 502.775 468.835 502.847C468.64 502.88 468.479 502.929 468.355 502.993C468.232 503.057 468.109 503.153 467.992 503.279C467.872 503.404 467.739 503.557 467.585 503.739L466.429 505.129C466.224 505.377 466.067 505.631 465.961 505.892C465.855 506.156 465.803 506.412 465.803 506.663C465.803 506.916 465.913 507.161 466.133 507.401C466.336 507.627 466.499 507.775 466.62 507.851C466.741 507.923 466.917 508.056 467.148 508.248L470.705 503.776C470.477 503.445 470.221 503.191 469.937 503.009ZM475.727 488.801C476.639 489 477.441 489.389 478.136 489.968C478.713 490.452 479.251 490.883 479.744 491.267C480.236 491.649 480.789 492.096 481.4 492.605C481.863 492.992 482.372 493.429 482.929 493.923C483.487 494.413 484.14 495.013 484.893 495.724C482.76 498.317 480.753 500.777 478.872 503.101C476.991 505.428 475.189 507.623 473.468 509.689L472.063 511.377C471.593 511.937 471.125 512.485 470.653 513.017L468.497 515.505C467.905 515.04 467.367 514.627 466.883 514.265C466.399 513.905 465.893 513.503 465.364 513.061L464.671 512.485C464.439 512.291 464.196 512.061 463.943 511.795C463.472 511.319 463.027 510.877 462.608 510.473C462.189 510.067 461.821 509.651 461.508 509.22C461.195 508.789 460.943 508.328 460.751 507.833C460.563 507.339 460.467 506.756 460.467 506.084C460.461 505.855 460.517 505.551 460.636 505.175C460.755 504.797 460.921 504.377 461.14 503.913C461.359 503.451 461.631 502.964 461.959 502.452C462.285 501.941 462.649 501.447 463.049 500.968C463.669 500.224 464.368 499.568 465.149 499C465.931 498.432 466.775 498.092 467.681 497.98C467.543 496.8 467.697 495.697 468.147 494.671C468.596 493.644 469.144 492.743 469.792 491.965C470.193 491.488 470.591 491.064 470.995 490.699C471.397 490.333 471.768 490.012 472.109 489.739C472.509 489.428 472.891 489.157 473.251 488.924C473.989 488.643 474.813 488.603 475.727 488.801Z" fill="white"/>
</g>
<mask id="mask81_13_418" style="mask-type:luminance" maskUnits="userSpaceOnUse" x="0" y="0" width="1123" height="794">
<path d="M0 6.10352e-05H1122.52V793.701H0V6.10352e-05Z" fill="white"/>
</mask>
<g mask="url(#mask81_13_418)">
<path d="M452.596 476.346C452.474 476.167 452.312 475.951 452.116 475.698L451.484 474.878C451.262 474.59 451.056 474.339 450.87 474.132L449.812 475.192C449.511 475.506 449.196 475.83 448.87 476.163C448.543 476.498 448.236 476.814 447.954 477.115C447.614 477.484 447.236 477.906 446.824 478.374C446.411 478.842 446.032 479.274 445.69 479.676L444.495 481.087C444.94 480.852 445.451 480.582 446.027 480.271C446.604 479.962 447.198 479.642 447.808 479.306C448.419 478.968 449.018 478.638 449.606 478.306C450.192 477.975 450.722 477.683 451.191 477.428C451.662 477.176 452.043 476.975 452.339 476.83L452.762 476.586C452.774 476.6 452.719 476.522 452.596 476.346ZM438.576 485.327C438.402 485.082 438.162 484.763 437.859 484.372L437.367 483.732C437.183 483.494 436.97 483.236 436.731 482.96C437.823 481.276 438.987 479.624 440.223 478.004C441.458 476.384 442.754 474.735 444.106 473.052C445.458 471.371 446.879 469.628 448.368 467.827C449.859 466.026 451.403 464.1 453.003 462.051L456.97 467.143C456.644 467.53 456.382 467.834 456.184 468.054C455.988 468.272 455.807 468.48 455.644 468.674C455.482 468.868 455.31 469.076 455.127 469.298C454.946 469.519 454.715 469.818 454.436 470.198C454.632 470.454 454.864 470.744 455.127 471.07C455.394 471.395 455.656 471.727 455.92 472.068C456.182 472.41 456.444 472.738 456.702 473.055C456.959 473.372 457.18 473.651 457.364 473.888L460.971 472.328L462.863 474.782C463.14 475.14 463.435 475.531 463.747 475.954C464.062 476.378 464.448 476.888 464.908 477.484L442.178 487.646L440.902 488.262C440.643 487.998 440.376 487.688 440.102 487.328L439.056 485.976C438.911 485.788 438.752 485.571 438.576 485.327Z" fill="white"/>
</g>
<mask id="mask82_13_418" style="mask-type:luminance" maskUnits="userSpaceOnUse" x="0" y="0" width="1123" height="794">
<path d="M0 3.05176e-05H1122.52V793.701H0V3.05176e-05Z" fill="white"/>
</mask>
<g mask="url(#mask82_13_418)">
<path d="M420.43 455.488L437.862 446.53C437.668 446.124 437.486 445.716 437.315 445.308C437.144 444.901 436.962 444.481 436.768 444.05C436.574 443.617 436.364 443.152 436.138 442.652C435.911 442.152 435.646 441.605 435.339 441.013C435.942 440.678 436.466 440.404 436.912 440.19L439.302 439.052C439.651 438.885 440.05 438.672 440.498 438.408L445.279 448.288L445.94 449.973L427.055 459.408L423.019 461.368L420.43 455.488Z" fill="white"/>
</g>
<mask id="mask83_13_418" style="mask-type:luminance" maskUnits="userSpaceOnUse" x="0" y="0" width="1123" height="794">
<path d="M0 3.05176e-05H1122.52V793.701H0V3.05176e-05Z" fill="white"/>
</mask>
<g mask="url(#mask83_13_418)">
<path d="M398.4 497.027L399.306 498.308L391.261 504.003L404.921 506.236L405.956 507.699L392.404 505.424L389.893 519.659L388.79 518.105L391.216 504.036L382.968 509.879L382.06 508.597L398.4 497.027Z" fill="#231F20"/>
</g>
<mask id="mask84_13_418" style="mask-type:luminance" maskUnits="userSpaceOnUse" x="0" y="0" width="1123" height="794">
<path d="M0 6.10352e-05H1122.52V793.701H0V6.10352e-05Z" fill="white"/>
</mask>
<g mask="url(#mask84_13_418)">
<path d="M409.575 512.214L417.05 520.965L416.071 521.801L409.615 514.242L403.673 519.315L408.911 525.45L407.934 526.286L402.694 520.153L396.349 525.574L403.131 533.517L402.153 534.353L394.351 525.218L409.575 512.214Z" fill="#231F20"/>
</g>
<mask id="mask85_13_418" style="mask-type:luminance" maskUnits="userSpaceOnUse" x="0" y="0" width="1123" height="794">
<path d="M0 3.05176e-05H1122.52V793.701H0V3.05176e-05Z" fill="white"/>
</mask>
<g mask="url(#mask85_13_418)">
<path d="M418.736 536.451C421.044 538.699 423.288 539.164 425.32 537.078L425.398 536.996C427.548 534.79 426.786 532.642 424.56 530.472L421.69 527.678L415.866 533.656L418.736 536.451ZM421.464 525.659L425.398 529.49C428.186 532.206 429.218 535.322 426.521 538.091L426.444 538.171C424.117 540.559 421.478 540.139 419.037 538.348L417.144 549.406L415.901 548.194L417.776 537.276L414.988 534.559L408.617 541.099L407.493 540.006L421.464 525.659Z" fill="#231F20"/>
</g>
<mask id="mask86_13_418" style="mask-type:luminance" maskUnits="userSpaceOnUse" x="0" y="0" width="1123" height="794">
<path d="M0 3.05176e-05H1122.52V793.701H0V3.05176e-05Z" fill="white"/>
</mask>
<g mask="url(#mask86_13_418)">
<path d="M425.061 548.748L426.26 549.717C424.939 551.889 424.673 554.447 427.921 557.068C430.361 559.039 433.096 558.905 434.644 556.988C436.403 554.808 435.972 553.201 433.221 550.189C430.228 546.943 429.505 544.491 431.493 542.028C433.447 539.608 436.768 539.553 439.688 541.911C442.585 544.249 443.191 547.112 441.535 549.88L440.423 548.983C441.617 546.743 441.188 544.776 438.877 542.912C436.48 540.977 434.209 540.981 432.699 542.855C431.325 544.555 431.439 546.157 434.297 549.257C437.361 552.595 438.248 554.931 435.891 557.851C433.903 560.313 430.249 560.604 427.112 558.071C423.255 554.957 423.331 551.561 425.061 548.748Z" fill="#231F20"/>
</g>
<mask id="mask87_13_418" style="mask-type:luminance" maskUnits="userSpaceOnUse" x="0" y="0" width="1123" height="794">
<path d="M0 4.57764e-05H1122.52V793.701H0V4.57764e-05Z" fill="white"/>
</mask>
<g mask="url(#mask87_13_418)">
<path d="M452.325 553.179L447.169 549.708L447.888 548.642L459.478 556.438L458.76 557.507L453.602 554.039L443.148 569.578L441.87 568.718L452.325 553.179Z" fill="#231F20"/>
</g>
<mask id="mask88_13_418" style="mask-type:luminance" maskUnits="userSpaceOnUse" x="0" y="0" width="1123" height="794">
<path d="M0 4.57764e-05H1122.52V793.701H0V4.57764e-05Z" fill="white"/>
</mask>
<g mask="url(#mask88_13_418)">
<path d="M464.863 569.895C467.54 571.363 469.463 570.883 470.672 568.672L470.728 568.575C471.979 566.291 471.12 564.479 468.541 563.066L464.931 561.088L461.203 567.891L464.863 569.895ZM460.868 578.819C463.617 580.326 465.731 579.791 467.063 577.36L467.119 577.262C468.436 574.855 467.561 572.779 464.492 571.096L460.612 568.972L456.521 576.436L460.868 578.819ZM464.185 559.243L469.171 561.975C472.267 563.67 473.815 566.146 472.065 569.339L472.011 569.438C470.947 571.378 469.189 572.139 466.929 571.602C469.288 573.534 469.749 575.606 468.444 577.988L468.391 578.087C466.628 581.304 463.627 581.767 460.287 579.938L454.564 576.803L464.185 559.243Z" fill="#231F20"/>
</g>
<mask id="mask89_13_418" style="mask-type:luminance" maskUnits="userSpaceOnUse" x="0" y="0" width="1123" height="794">
<path d="M0 4.57764e-05H1122.52V793.701H0V4.57764e-05Z" fill="white"/>
</mask>
<g mask="url(#mask89_13_418)">
<path d="M477.951 580.515L485.413 583.722L486.161 571.698L477.951 580.515ZM485.769 570.126L487.673 570.944L486.378 592.184L484.937 591.564L485.326 585.055L477.042 581.495L472.613 586.267L471.249 585.68L485.769 570.126Z" fill="#231F20"/>
</g>
<mask id="mask90_13_418" style="mask-type:luminance" maskUnits="userSpaceOnUse" x="0" y="0" width="1123" height="794">
<path d="M0 3.05176e-05H1122.52V793.701H0V3.05176e-05Z" fill="white"/>
</mask>
<g mask="url(#mask90_13_418)">
<path d="M499.427 575.603L500.923 576.079L495.235 593.925L504.491 596.877L504.099 598.103L493.35 594.678L499.427 575.603Z" fill="#231F20"/>
</g>
<mask id="mask91_13_418" style="mask-type:luminance" maskUnits="userSpaceOnUse" x="0" y="0" width="1123" height="794">
<path d="M0 4.57764e-05H1122.52V793.701H0V4.57764e-05Z" fill="white"/>
</mask>
<g mask="url(#mask91_13_418)">
<path d="M524.572 582.834L526.781 583.202L530.909 601.323L540.729 585.531L542.882 585.891L539.586 605.639L538.068 605.386L541.042 587.571L530.637 604.146L530.141 604.063L525.685 585.007L522.71 602.822L521.276 602.583L524.572 582.834Z" fill="#231F20"/>
</g>
<mask id="mask92_13_418" style="mask-type:luminance" maskUnits="userSpaceOnUse" x="0" y="0" width="1123" height="794">
<path d="M0 3.05176e-05H1122.52V793.701H0V3.05176e-05Z" fill="white"/>
</mask>
<g mask="url(#mask92_13_418)">
<path d="M550.088 586.488L561.575 587.14L561.501 588.425L551.579 587.861L551.137 595.66L559.185 596.118L559.113 597.404L551.063 596.946L550.589 605.274L561.015 605.866L560.943 607.153L548.951 606.47L550.088 586.488Z" fill="#231F20"/>
</g>
<mask id="mask93_13_418" style="mask-type:luminance" maskUnits="userSpaceOnUse" x="0" y="0" width="1123" height="794">
<path d="M0 4.57764e-05H1122.52V793.701H0V4.57764e-05Z" fill="white"/>
</mask>
<g mask="url(#mask93_13_418)">
<path d="M572.35 588.33L566.14 588.525L566.1 587.237L580.061 586.802L580.102 588.089L573.89 588.282L574.472 607.003L572.933 607.05L572.35 588.33Z" fill="#231F20"/>
</g>
<mask id="mask94_13_418" style="mask-type:luminance" maskUnits="userSpaceOnUse" x="0" y="0" width="1123" height="794">
<path d="M0 4.57764e-05H1122.52V793.701H0V4.57764e-05Z" fill="white"/>
</mask>
<g mask="url(#mask94_13_418)">
<path d="M604.374 602.641C607.463 602.113 608.79 600.381 608.322 597.649L608.304 597.54C607.842 594.835 605.868 593.751 602.416 594.339L598.056 595.083L599.488 603.475L604.374 602.641ZM601.962 593.168C604.97 592.655 606.179 591.084 605.755 588.6L605.735 588.491C605.298 585.923 603.499 585.037 600.602 585.532L596.543 586.224L597.848 593.869L601.962 593.168ZM594.812 585.24L600.418 584.284C603.895 583.692 606.646 584.669 607.259 588.259L607.279 588.368C607.65 590.549 606.744 592.237 604.639 593.223C607.687 593.269 609.338 594.608 609.794 597.284L609.812 597.395C610.43 601.009 608.367 603.236 604.614 603.879L598.18 604.976L594.812 585.24Z" fill="#231F20"/>
</g>
<mask id="mask95_13_418" style="mask-type:luminance" maskUnits="userSpaceOnUse" x="0" y="0" width="1123" height="794">
<path d="M0 4.57764e-05H1122.52V793.701H0V4.57764e-05Z" fill="white"/>
</mask>
<g mask="url(#mask95_13_418)">
<path d="M613.487 581.678L615.003 581.278L619.779 599.399L629.178 596.922L629.507 598.167L618.59 601.044L613.487 581.678Z" fill="#231F20"/>
</g>
<mask id="mask96_13_418" style="mask-type:luminance" maskUnits="userSpaceOnUse" x="0" y="0" width="1123" height="794">
<path d="M0 3.05176e-05H1122.52V793.701H0V3.05176e-05Z" fill="white"/>
</mask>
<g mask="url(#mask96_13_418)">
<path d="M647.949 581.162L647.872 580.953C646.181 576.385 641.813 573.853 637.217 575.551C632.621 577.251 630.888 581.923 632.637 586.649L632.715 586.859C634.483 591.637 639.109 593.897 643.467 592.285C647.957 590.623 649.728 585.967 647.949 581.162ZM631.227 587.439L631.149 587.23C629.179 581.899 631.492 576.297 636.771 574.345C642.075 572.381 647.453 575.138 649.405 580.415L649.483 580.626C651.445 585.93 649.175 591.577 643.923 593.519C638.567 595.499 633.169 592.69 631.227 587.439Z" fill="#231F20"/>
</g>
<mask id="mask97_13_418" style="mask-type:luminance" maskUnits="userSpaceOnUse" x="0" y="0" width="1123" height="794">
<path d="M0 3.05176e-05H1122.52V793.701H0V3.05176e-05Z" fill="white"/>
</mask>
<g mask="url(#mask97_13_418)">
<path d="M651.462 568.576L661.784 563.491L662.353 564.645L653.437 569.039L656.89 576.045L664.124 572.481L664.692 573.636L657.458 577.2L661.148 584.683L670.514 580.067L671.082 581.221L660.31 586.531L651.462 568.576Z" fill="#231F20"/>
</g>
<mask id="mask98_13_418" style="mask-type:luminance" maskUnits="userSpaceOnUse" x="0" y="0" width="1123" height="794">
<path d="M0 3.05176e-05H1122.52V793.701H0V3.05176e-05Z" fill="white"/>
</mask>
<g mask="url(#mask98_13_418)">
<path d="M667.363 560.549L669.254 559.349L684.419 570.094L681.201 551.779L683.045 550.61L693.763 567.521L692.462 568.347L682.793 553.089L686.099 572.378L685.673 572.647L669.642 561.425L679.311 576.681L678.081 577.461L667.363 560.549Z" fill="#231F20"/>
</g>
<mask id="mask99_13_418" style="mask-type:luminance" maskUnits="userSpaceOnUse" x="0" y="0" width="1123" height="794">
<path d="M0 4.57764e-05H1122.52V793.701H0V4.57764e-05Z" fill="white"/>
</mask>
<g mask="url(#mask99_13_418)">
<path d="M699.668 562.816L697.867 540.673L688.96 547.784L688.155 546.777L698.772 538.302L698.947 538.521L700.859 560.538L710.295 553.009L711.133 554.06L699.86 563.058L699.668 562.816Z" fill="#231F20"/>
</g>
<mask id="mask100_13_418" style="mask-type:luminance" maskUnits="userSpaceOnUse" x="0" y="0" width="1123" height="794">
<path d="M0 4.57764e-05H1122.52V793.701H0V4.57764e-05Z" fill="white"/>
</mask>
<g mask="url(#mask100_13_418)">
<path d="M713.617 541.857L719.445 536.205L708.638 530.889L713.617 541.857ZM707.037 530.648L708.526 529.205L727.626 538.568L726.501 539.66L720.645 536.797L714.172 543.073L716.872 548.996L715.808 550.029L707.037 530.648Z" fill="#231F20"/>
</g>
<mask id="mask101_13_418" style="mask-type:luminance" maskUnits="userSpaceOnUse" x="0" y="0" width="1123" height="794">
<path d="M0 3.05176e-05H1122.52V793.701H0V3.05176e-05Z" fill="white"/>
</mask>
<g mask="url(#mask101_13_418)">
<path d="M728.673 526.326L733.906 520.118L722.618 515.914L728.673 526.326ZM721.004 515.834L722.338 514.25L742.281 521.649L741.27 522.847L735.157 520.587L729.349 527.481L732.629 533.101L731.672 534.237L721.004 515.834Z" fill="#231F20"/>
</g>
<mask id="mask102_13_418" style="mask-type:luminance" maskUnits="userSpaceOnUse" x="0" y="0" width="1123" height="794">
<path d="M0 3.05176e-05H1122.52V793.701H0V3.05176e-05Z" fill="white"/>
</mask>
<g mask="url(#mask102_13_418)">
<path d="M748.59 510.641C751.785 505.939 750.377 501.631 746.159 498.767L745.974 498.64C741.895 495.871 737.445 495.996 734.139 500.861L732.173 503.757L746.609 513.56L748.59 510.641ZM730.226 504.332L733.151 500.021C736.866 494.555 742.277 494.165 746.887 497.296L747.095 497.439C751.682 500.553 753.526 505.665 749.686 511.319L746.791 515.583L730.226 504.332Z" fill="#231F20"/>
</g>
</svg>
